%TF.GenerationSoftware,KiCad,Pcbnew,9.0.5-1.fc42*%
%TF.CreationDate,2025-10-27T07:04:56-07:00*%
%TF.ProjectId,adapter_relay_external,61646170-7465-4725-9f72-656c61795f65,1.0*%
%TF.SameCoordinates,Original*%
%TF.FileFunction,Soldermask,Top*%
%TF.FilePolarity,Negative*%
%FSLAX46Y46*%
G04 Gerber Fmt 4.6, Leading zero omitted, Abs format (unit mm)*
G04 Created by KiCad (PCBNEW 9.0.5-1.fc42) date 2025-10-27 07:04:56*
%MOMM*%
%LPD*%
G01*
G04 APERTURE LIST*
%ADD10C,2.000000*%
%ADD11C,3.100000*%
%ADD12C,1.100000*%
%ADD13C,1.000000*%
%ADD14R,2.600000X1.700000*%
%ADD15C,2.100000*%
%ADD16O,1.600000X3.000000*%
G04 APERTURE END LIST*
D10*
%TO.C,REF\u002A\u002A*%
X107000000Y-103000000D03*
%TD*%
%TO.C,REF\u002A\u002A*%
X107000000Y-147000000D03*
%TD*%
D11*
%TO.C,REF\u002A\u002A*%
X103000000Y-147000000D03*
%TD*%
D10*
%TO.C,REF\u002A\u002A*%
X143000000Y-103000000D03*
%TD*%
%TO.C,REF\u002A\u002A*%
X143000000Y-147000000D03*
%TD*%
D12*
%TO.C,J1*%
X144050000Y-108490000D03*
D13*
X144050000Y-111030000D03*
X144050000Y-138970000D03*
D12*
X144050000Y-141510000D03*
D14*
X146350000Y-107220000D03*
X146350000Y-109760000D03*
X146350000Y-112300000D03*
X146350000Y-114840000D03*
X146350000Y-117380000D03*
X146350000Y-119920000D03*
X146350000Y-122460000D03*
X146350000Y-125000000D03*
X146350000Y-127540000D03*
X146350000Y-130080000D03*
X146350000Y-132620000D03*
X146350000Y-135160000D03*
X146350000Y-137700000D03*
X146350000Y-140240000D03*
X146350000Y-142780000D03*
X141750000Y-107220000D03*
X141750000Y-109760000D03*
X141750000Y-112300000D03*
X141750000Y-114840000D03*
X141750000Y-117380000D03*
X141750000Y-119920000D03*
X141750000Y-122460000D03*
X141750000Y-125000000D03*
X141750000Y-127540000D03*
X141750000Y-130080000D03*
X141750000Y-132620000D03*
X141750000Y-135160000D03*
X141750000Y-137700000D03*
X141750000Y-140240000D03*
X141750000Y-142780000D03*
%TD*%
D11*
%TO.C,REF\u002A\u002A*%
X147000000Y-147000000D03*
%TD*%
%TO.C,REF\u002A\u002A*%
X103000000Y-103000000D03*
%TD*%
%TO.C,REF\u002A\u002A*%
X147000000Y-103000000D03*
%TD*%
D12*
%TO.C,J2*%
X144050000Y-141510000D03*
D13*
X144050000Y-138970000D03*
X144050000Y-111030000D03*
D12*
X144050000Y-108490000D03*
%TD*%
D15*
%TO.C,J3*%
X126078957Y-147508620D03*
D16*
X131374611Y-141308620D03*
X126074611Y-141308620D03*
X122874611Y-141308620D03*
%TD*%
M02*
