M48
; DRILL file {KiCad 9.0.5-1.fc42} date 2025-10-27T07:04:46-0700
; FORMAT={-:-/ absolute / metric / decimal}
; #@! TF.CreationDate,2025-10-27T07:04:46-07:00
; #@! TF.GenerationSoftware,Kicad,Pcbnew,9.0.5-1.fc42
; #@! TF.FileFunction,Plated,1,2,PTH
FMAT,2
METRIC
; #@! TA.AperFunction,Plated,PTH,ViaDrill
T1C0.300
; #@! TA.AperFunction,Plated,PTH,ViaDrill
T2C0.400
; #@! TA.AperFunction,Plated,PTH,ComponentDrill
T3C1.000
%
G90
G05
T1
X117.5Y-104.0
X117.5Y-106.0
X117.5Y-108.0
X117.5Y-110.0
X117.5Y-112.0
X117.5Y-114.0
X120.5Y-104.0
X120.5Y-106.0
X120.5Y-108.0
X120.5Y-110.0
X120.5Y-112.0
X120.5Y-114.0
X123.0Y-104.0
X123.0Y-106.0
X123.0Y-108.0
X123.0Y-110.0
X123.0Y-112.0
X123.0Y-114.0
X125.0Y-104.0
X125.0Y-106.0
X125.0Y-108.0
X125.0Y-110.0
X125.0Y-112.0
X125.0Y-114.0
X127.0Y-104.0
X127.0Y-114.0
X129.0Y-104.0
X129.0Y-106.0
X129.0Y-108.0
X129.0Y-110.0
X129.0Y-112.0
X129.0Y-114.0
X130.287Y-124.411
X130.287Y-133.511
X131.0Y-104.0
X131.0Y-106.0
X131.0Y-108.0
X131.0Y-110.0
X131.0Y-112.0
X131.0Y-114.0
X138.0Y-115.0
X139.605Y-108.49
X139.61Y-114.2
X144.05Y-120.555
T2
X141.0Y-112.3
X141.0Y-117.38
X141.0Y-119.92
X141.0Y-122.46
X141.0Y-125.0
X141.0Y-127.54
X141.0Y-130.08
X141.0Y-132.62
X141.0Y-135.16
X141.0Y-137.7
X141.0Y-140.24
X141.0Y-142.78
X142.5Y-112.3
X142.5Y-117.38
X142.5Y-119.92
X142.5Y-122.46
X142.5Y-125.0
X142.5Y-127.54
X142.5Y-130.08
X142.5Y-132.62
X142.5Y-135.16
X142.5Y-137.7
X142.5Y-140.24
X142.5Y-142.78
X145.6Y-107.22
X145.6Y-109.76
X145.6Y-112.3
X145.6Y-122.46
X145.6Y-125.0
X145.6Y-127.54
X145.6Y-130.08
X145.6Y-135.16
X145.6Y-137.7
X145.6Y-140.24
X145.6Y-142.78
X147.1Y-107.22
X147.1Y-109.76
X147.1Y-112.3
X147.1Y-122.46
X147.1Y-125.0
X147.1Y-127.54
X147.1Y-130.08
X147.1Y-135.16
X147.1Y-137.7
X147.1Y-140.24
X147.1Y-142.78
T3
G00X122.875Y-141.909
M15
G01X122.875Y-140.709
M16
G05
G00X126.075Y-141.909
M15
G01X126.075Y-140.709
M16
G05
G00X131.375Y-141.909
M15
G01X131.375Y-140.709
M16
G05
M30
