%TF.GenerationSoftware,KiCad,Pcbnew,9.0.5-1.fc42*%
%TF.CreationDate,2025-11-07T12:43:21-08:00*%
%TF.ProjectId,adapter_relay_external,61646170-7465-4725-9f72-656c61795f65,1.0*%
%TF.SameCoordinates,Original*%
%TF.FileFunction,Soldermask,Top*%
%TF.FilePolarity,Negative*%
%FSLAX46Y46*%
G04 Gerber Fmt 4.6, Leading zero omitted, Abs format (unit mm)*
G04 Created by KiCad (PCBNEW 9.0.5-1.fc42) date 2025-11-07 12:43:21*
%MOMM*%
%LPD*%
G01*
G04 APERTURE LIST*
%ADD10R,0.850000X0.850000*%
%ADD11C,2.000000*%
%ADD12C,3.100000*%
%ADD13C,1.100000*%
%ADD14C,1.000000*%
%ADD15R,2.600000X1.700000*%
%ADD16O,1.800000X3.000000*%
G04 APERTURE END LIST*
D10*
%TO.C,J4*%
X135462500Y-115000000D03*
%TD*%
D11*
%TO.C,REF\u002A\u002A*%
X107000000Y-103000000D03*
%TD*%
%TO.C,REF\u002A\u002A*%
X107000000Y-147000000D03*
%TD*%
D12*
%TO.C,REF\u002A\u002A*%
X103000000Y-147000000D03*
%TD*%
D11*
%TO.C,REF\u002A\u002A*%
X143000000Y-103000000D03*
%TD*%
%TO.C,REF\u002A\u002A*%
X143000000Y-147000000D03*
%TD*%
D13*
%TO.C,J1*%
X144050000Y-108490000D03*
D14*
X144050000Y-111030000D03*
X144050000Y-138970000D03*
D13*
X144050000Y-141510000D03*
D15*
X146350000Y-107220000D03*
X146350000Y-109760000D03*
X146350000Y-112300000D03*
X146350000Y-114840000D03*
X146350000Y-117380000D03*
X146350000Y-119920000D03*
X146350000Y-122460000D03*
X146350000Y-125000000D03*
X146350000Y-127540000D03*
X146350000Y-130080000D03*
X146350000Y-132620000D03*
X146350000Y-135160000D03*
X146350000Y-137700000D03*
X146350000Y-140240000D03*
X146350000Y-142780000D03*
X141750000Y-107220000D03*
X141750000Y-109760000D03*
X141750000Y-112300000D03*
X141750000Y-114840000D03*
X141750000Y-117380000D03*
X141750000Y-119920000D03*
X141750000Y-122460000D03*
X141750000Y-125000000D03*
X141750000Y-127540000D03*
X141750000Y-130080000D03*
X141750000Y-132620000D03*
X141750000Y-135160000D03*
X141750000Y-137700000D03*
X141750000Y-140240000D03*
X141750000Y-142780000D03*
%TD*%
D12*
%TO.C,REF\u002A\u002A*%
X147000000Y-147000000D03*
%TD*%
%TO.C,REF\u002A\u002A*%
X103000000Y-103000000D03*
%TD*%
%TO.C,REF\u002A\u002A*%
X147000000Y-103000000D03*
%TD*%
D13*
%TO.C,J2*%
X144050000Y-141510000D03*
D14*
X144050000Y-138970000D03*
X144050000Y-111030000D03*
D13*
X144050000Y-108490000D03*
%TD*%
D11*
%TO.C,J3*%
X125000000Y-147500000D03*
D16*
X130300000Y-141300000D03*
X125000000Y-141300000D03*
X121800000Y-141300000D03*
%TD*%
M02*
