%TF.GenerationSoftware,KiCad,Pcbnew,9.0.5-1.fc42*%
%TF.CreationDate,2025-11-07T12:43:21-08:00*%
%TF.ProjectId,adapter_relay_external,61646170-7465-4725-9f72-656c61795f65,1.0*%
%TF.SameCoordinates,Original*%
%TF.FileFunction,Copper,L2,Bot*%
%TF.FilePolarity,Positive*%
%FSLAX46Y46*%
G04 Gerber Fmt 4.6, Leading zero omitted, Abs format (unit mm)*
G04 Created by KiCad (PCBNEW 9.0.5-1.fc42) date 2025-11-07 12:43:21*
%MOMM*%
%LPD*%
G01*
G04 APERTURE LIST*
G04 Aperture macros list*
%AMRoundRect*
0 Rectangle with rounded corners*
0 $1 Rounding radius*
0 $2 $3 $4 $5 $6 $7 $8 $9 X,Y pos of 4 corners*
0 Add a 4 corners polygon primitive as box body*
4,1,4,$2,$3,$4,$5,$6,$7,$8,$9,$2,$3,0*
0 Add four circle primitives for the rounded corners*
1,1,$1+$1,$2,$3*
1,1,$1+$1,$4,$5*
1,1,$1+$1,$6,$7*
1,1,$1+$1,$8,$9*
0 Add four rect primitives between the rounded corners*
20,1,$1+$1,$2,$3,$4,$5,0*
20,1,$1+$1,$4,$5,$6,$7,0*
20,1,$1+$1,$6,$7,$8,$9,0*
20,1,$1+$1,$8,$9,$2,$3,0*%
G04 Aperture macros list end*
%TA.AperFunction,EtchedComponent*%
%ADD10C,0.000000*%
%TD*%
%TA.AperFunction,ComponentPad*%
%ADD11R,0.850000X0.850000*%
%TD*%
%TA.AperFunction,SMDPad,CuDef*%
%ADD12R,1.020000X0.950000*%
%TD*%
%TA.AperFunction,SMDPad,CuDef*%
%ADD13R,1.550000X2.300000*%
%TD*%
%TA.AperFunction,SMDPad,CuDef*%
%ADD14R,1.450000X2.100000*%
%TD*%
%TA.AperFunction,SMDPad,CuDef*%
%ADD15C,0.500000*%
%TD*%
%TA.AperFunction,SMDPad,CuDef*%
%ADD16RoundRect,0.250000X-1.075000X0.312500X-1.075000X-0.312500X1.075000X-0.312500X1.075000X0.312500X0*%
%TD*%
%TA.AperFunction,SMDPad,CuDef*%
%ADD17R,2.600000X1.700000*%
%TD*%
%TA.AperFunction,SMDPad,CuDef*%
%ADD18R,2.150000X2.250000*%
%TD*%
%TA.AperFunction,ComponentPad*%
%ADD19O,1.800000X3.000000*%
%TD*%
%TA.AperFunction,SMDPad,CuDef*%
%ADD20RoundRect,0.250000X0.312500X0.625000X-0.312500X0.625000X-0.312500X-0.625000X0.312500X-0.625000X0*%
%TD*%
%TA.AperFunction,ViaPad*%
%ADD21C,0.700000*%
%TD*%
%TA.AperFunction,ViaPad*%
%ADD22C,0.600000*%
%TD*%
%TA.AperFunction,Conductor*%
%ADD23C,0.200000*%
%TD*%
%TA.AperFunction,Conductor*%
%ADD24C,0.300000*%
%TD*%
%TA.AperFunction,Conductor*%
%ADD25C,1.000000*%
%TD*%
G04 APERTURE END LIST*
D10*
%TA.AperFunction,EtchedComponent*%
%TO.C,NT2*%
G36*
X124980000Y-137000000D02*
G01*
X124480000Y-137000000D01*
X124480000Y-136000000D01*
X124980000Y-136000000D01*
X124980000Y-137000000D01*
G37*
%TD.AperFunction*%
%TA.AperFunction,EtchedComponent*%
%TO.C,NT1*%
G36*
X132500000Y-107100000D02*
G01*
X131500000Y-107100000D01*
X131500000Y-106600000D01*
X132500000Y-106600000D01*
X132500000Y-107100000D01*
G37*
%TD.AperFunction*%
%TD*%
D11*
%TO.P,J4,1,Pin_1*%
%TO.N,/G5\u00B7*%
X135462500Y-115000000D03*
%TD*%
D12*
%TO.P,F1,1,1*%
%TO.N,+5V*%
X134000000Y-136785000D03*
%TO.P,F1,2,2*%
%TO.N,/F1*%
X134000000Y-135215000D03*
%TD*%
D13*
%TO.P,D1,1,K*%
%TO.N,/SCHOTTKY*%
X134000000Y-106850000D03*
%TO.P,D1,2,A*%
%TO.N,/F1*%
X134000000Y-111150000D03*
%TD*%
D14*
%TO.P,U1,1,ANODE*%
%TO.N,/LED*%
X124730000Y-124450000D03*
%TO.P,U1,2,CATHODE*%
%TO.N,GND*%
X127270000Y-124450000D03*
%TO.P,U1,3,EMITTER*%
X127270000Y-133550000D03*
%TO.P,U1,4,COLLECTOR*%
%TO.N,/COLL*%
X124730000Y-133550000D03*
%TD*%
D15*
%TO.P,NT2,1,1*%
%TO.N,/COLL*%
X124730000Y-136000000D03*
%TO.P,NT2,2,2*%
%TO.N,/-LOAD*%
X124730000Y-137000000D03*
%TD*%
D16*
%TO.P,R1,1*%
%TO.N,/ZENER*%
X118000000Y-107537500D03*
%TO.P,R1,2*%
%TO.N,/F2*%
X118000000Y-110462500D03*
%TD*%
D17*
%TO.P,J2,000,GND*%
%TO.N,GND*%
X146350000Y-107220000D03*
%TO.P,J2,001,GND*%
X146350000Y-109760000D03*
%TO.P,J2,002,GND*%
X146350000Y-112300000D03*
%TO.P,J2,003,G37\u00B7SPI_MOSI*%
%TO.N,/G10\u00B7SPI_MOSI*%
X146350000Y-114840000D03*
%TO.P,J2,004,G35\u00B7SPI_MISO*%
%TO.N,/G8\u00B7SPI_MISO*%
X146350000Y-117380000D03*
%TO.P,J2,005,G36\u00B7SPI_CLK*%
%TO.N,/G6\u00B7SPI_CLK*%
X146350000Y-119920000D03*
%TO.P,J2,006,G44/RXD0\u00B7*%
%TO.N,/G44{slash}RXD0\u00B7*%
X146350000Y-122460000D03*
%TO.P,J2,007,G18/PC_RX\u00B7*%
%TO.N,/G18{slash}PC_RX\u00B7*%
X146350000Y-125000000D03*
%TO.P,J2,008,G12/In_SDA\u00B7*%
%TO.N,/G12{slash}In_SDA\u00B7*%
X146350000Y-127540000D03*
%TO.P,J2,009,G2/PA_SDA\u00B7*%
%TO.N,/G2{slash}PA_SDA\u00B7*%
X146350000Y-130080000D03*
%TO.P,J2,010,G6\u00B7*%
%TO.N,unconnected-(J2-G6\u00B7-Pad010)*%
X146350000Y-132620000D03*
%TO.P,J2,011,G13/I2S_DOUT\u00B7RS232_TX/RS485_TX*%
%TO.N,/G13{slash}I2S_DOUT\u00B7RS232_TX{slash}RS485_TX*%
X146350000Y-135160000D03*
%TO.P,J2,012,HPWR*%
%TO.N,/HPWR0*%
X146350000Y-137700000D03*
%TO.P,J2,013,HPWR*%
%TO.N,/HPWR1*%
X146350000Y-140240000D03*
%TO.P,J2,014,HPWR*%
%TO.N,/HPWR2*%
X146350000Y-142780000D03*
%TO.P,J2,100,G10\u00B7*%
%TO.N,unconnected-(J2-G10\u00B7-Pad100)*%
X141750000Y-107220000D03*
%TO.P,J2,101,G8\u00B7*%
%TO.N,unconnected-(J2-G8\u00B7-Pad101)*%
X141750000Y-109760000D03*
%TO.P,J2,102,RST/EN\u00B7*%
%TO.N,/RST{slash}EN\u00B7*%
X141750000Y-112300000D03*
%TO.P,J2,103,G5\u00B7*%
%TO.N,unconnected-(J2-G5\u00B7-Pad103)*%
X141750000Y-114840000D03*
%TO.P,J2,104,G9\u00B7CS*%
%TO.N,/G9\u00B7CS*%
X141750000Y-117380000D03*
%TO.P,J2,105,3V3*%
%TO.N,/3V3*%
X141750000Y-119920000D03*
%TO.P,J2,106,G43/TXD0\u00B7*%
%TO.N,/G43{slash}TXD0\u00B7*%
X141750000Y-122460000D03*
%TO.P,J2,107,G17/PC_TX\u00B7*%
%TO.N,/G17{slash}PC_TX\u00B7*%
X141750000Y-125000000D03*
%TO.P,J2,108,G11/In_SCL\u00B7*%
%TO.N,/G11{slash}In_CL\u00B7*%
X141750000Y-127540000D03*
%TO.P,J2,109,G1/PA_SCL\u00B7RS232_RX/RS485_RX*%
%TO.N,/G1{slash}PA_SCL\u00B7RS232_RX{slash}RS485_RX*%
X141750000Y-130080000D03*
%TO.P,J2,110,G7\u00B7RST*%
%TO.N,/G7\u00B7RST*%
X141750000Y-132620000D03*
%TO.P,J2,111,G0/I2S_LRCK\u00B7*%
%TO.N,/G0{slash}I2S_LRCK\u00B7*%
X141750000Y-135160000D03*
%TO.P,J2,112,G14/I2S_DIN\u00B7INT*%
%TO.N,/G14{slash}I2S_DIN\u00B7INT*%
X141750000Y-137700000D03*
%TO.P,J2,113,5V*%
%TO.N,+5V*%
X141750000Y-140240000D03*
%TO.P,J2,114,BAT*%
%TO.N,/BAT*%
X141750000Y-142780000D03*
%TD*%
D12*
%TO.P,F2,1,1*%
%TO.N,/F2*%
X118000000Y-135215000D03*
%TO.P,F2,2,2*%
%TO.N,/+LOAD*%
X118000000Y-136785000D03*
%TD*%
D18*
%TO.P,D2,1,K*%
%TO.N,/ZENER*%
X126000000Y-106800000D03*
%TO.P,D2,2,A*%
%TO.N,/-LOAD*%
X126000000Y-111200000D03*
%TD*%
D19*
%TO.P,J3,2,2*%
%TO.N,/-LOAD*%
X130300000Y-141300000D03*
%TO.P,J3,3,3*%
%TO.N,unconnected-(J3-Pad3)*%
X125000000Y-141300000D03*
%TO.P,J3,4,4*%
%TO.N,/+LOAD*%
X121800000Y-141300000D03*
%TD*%
D15*
%TO.P,NT1,1,1*%
%TO.N,/SCHOTTKY*%
X132500000Y-106850000D03*
%TO.P,NT1,2,2*%
%TO.N,/ZENER*%
X131500000Y-106850000D03*
%TD*%
D20*
%TO.P,R2,1*%
%TO.N,/G5\u00B7*%
X135462500Y-119000000D03*
%TO.P,R2,2*%
%TO.N,/LED*%
X132537500Y-119000000D03*
%TD*%
D21*
%TO.N,/G14{slash}I2S_DIN\u00B7INT*%
X141000000Y-137700000D03*
X142500000Y-137700000D03*
D22*
%TO.N,/G8\u00B7SPI_MISO*%
X139610000Y-114200000D03*
D21*
%TO.N,/RST{slash}EN\u00B7*%
X142500000Y-112300000D03*
X141000000Y-112300000D03*
%TO.N,/G2{slash}PA_SDA\u00B7*%
X147100000Y-130080000D03*
X145600000Y-130080000D03*
D22*
%TO.N,/G6\u00B7SPI_CLK*%
X144050000Y-120555000D03*
D21*
%TO.N,/G44{slash}RXD0\u00B7*%
X145600000Y-122460000D03*
X147100000Y-122460000D03*
%TO.N,/3V3*%
X142500000Y-119920000D03*
X141000000Y-119920000D03*
%TO.N,/G7\u00B7RST*%
X141000000Y-132620000D03*
X142500000Y-132620000D03*
%TO.N,/G43{slash}TXD0\u00B7*%
X142500000Y-122460000D03*
X141000000Y-122460000D03*
%TO.N,/G18{slash}PC_RX\u00B7*%
X147100000Y-125000000D03*
X145600000Y-125000000D03*
%TO.N,/HPWR2*%
X145600000Y-142780000D03*
X147100000Y-142780000D03*
D22*
%TO.N,/G10\u00B7SPI_MOSI*%
X139605000Y-108490000D03*
D21*
%TO.N,/G1{slash}PA_SCL\u00B7RS232_RX{slash}RS485_RX*%
X142500000Y-130080000D03*
X141000000Y-130080000D03*
%TO.N,/G13{slash}I2S_DOUT\u00B7RS232_TX{slash}RS485_TX*%
X145600000Y-135160000D03*
X147100000Y-135160000D03*
%TO.N,/G11{slash}In_CL\u00B7*%
X141000000Y-127540000D03*
X142500000Y-127540000D03*
%TO.N,/G0{slash}I2S_LRCK\u00B7*%
X141000000Y-135160000D03*
X142500000Y-135160000D03*
%TO.N,/HPWR0*%
X147100000Y-137700000D03*
X145600000Y-137700000D03*
%TO.N,/G12{slash}In_SDA\u00B7*%
X145600000Y-127540000D03*
X147100000Y-127540000D03*
%TO.N,/HPWR1*%
X147100000Y-140240000D03*
X145600000Y-140240000D03*
%TO.N,/G17{slash}PC_TX\u00B7*%
X142500000Y-125000000D03*
X141000000Y-125000000D03*
%TO.N,/G9\u00B7CS*%
X142500000Y-117380000D03*
X141000000Y-117380000D03*
%TO.N,/BAT*%
X141000000Y-142780000D03*
X142500000Y-142780000D03*
D22*
%TO.N,/ZENER*%
X130000000Y-106000000D03*
X116500000Y-104000000D03*
X124000000Y-104000000D03*
X122000000Y-104000000D03*
X116500000Y-108000000D03*
X128000000Y-104000000D03*
X119500000Y-108000000D03*
X124000000Y-108000000D03*
X119500000Y-106000000D03*
X126000000Y-104000000D03*
X119500000Y-104000000D03*
X124000000Y-106000000D03*
X122000000Y-106000000D03*
X122000000Y-108000000D03*
X128000000Y-108000000D03*
X130000000Y-108000000D03*
X128000000Y-106000000D03*
X130000000Y-104000000D03*
X116500000Y-106000000D03*
D21*
%TO.N,+5V*%
X141000000Y-140240000D03*
X142500000Y-140240000D03*
D22*
%TO.N,/F2*%
X116500000Y-110000000D03*
X116500000Y-114000000D03*
X119500000Y-114000000D03*
X119500000Y-110000000D03*
X119500000Y-112000000D03*
X116500000Y-112000000D03*
%TO.N,GND*%
X129000000Y-133550000D03*
D21*
X145600000Y-107220000D03*
X145600000Y-112300000D03*
X147100000Y-109760000D03*
X147100000Y-112300000D03*
X147100000Y-107220000D03*
D22*
X129000000Y-124450000D03*
D21*
X145600000Y-109760000D03*
D22*
%TO.N,/-LOAD*%
X122000000Y-110000000D03*
X126000000Y-114000000D03*
X130000000Y-114000000D03*
X124000000Y-112000000D03*
X122000000Y-112000000D03*
X128000000Y-112000000D03*
X124000000Y-114000000D03*
X124000000Y-110000000D03*
X128000000Y-110000000D03*
X128000000Y-114000000D03*
X130000000Y-112000000D03*
X130000000Y-110000000D03*
X122000000Y-114000000D03*
%TD*%
D23*
%TO.N,/G5\u00B7*%
X135462500Y-115000000D02*
X135462500Y-119000000D01*
%TO.N,/G8\u00B7SPI_MISO*%
X140208000Y-116078000D02*
X139605000Y-115475000D01*
X146336000Y-117380000D02*
X145034000Y-116078000D01*
X145034000Y-116078000D02*
X140208000Y-116078000D01*
X139605000Y-115475000D02*
X139610000Y-114200000D01*
X146350000Y-117380000D02*
X146336000Y-117380000D01*
%TO.N,/G6\u00B7SPI_CLK*%
X144685000Y-119920000D02*
X146350000Y-119920000D01*
X144050000Y-120555000D02*
X144685000Y-119920000D01*
D24*
%TO.N,/SCHOTTKY*%
X134000000Y-106850000D02*
X132500000Y-106850000D01*
D23*
%TO.N,/G10\u00B7SPI_MOSI*%
X139605000Y-108490000D02*
X139605000Y-112905000D01*
X145080000Y-113570000D02*
X146350000Y-114840000D01*
X139605000Y-112905000D02*
X140270000Y-113570000D01*
X140270000Y-113570000D02*
X145080000Y-113570000D01*
D24*
%TO.N,/F1*%
X134000000Y-111150000D02*
X134000000Y-135215000D01*
D25*
%TO.N,/ZENER*%
X126000000Y-106800000D02*
X118737500Y-106800000D01*
X118737500Y-106800000D02*
X118000000Y-107537500D01*
X126000000Y-106800000D02*
X131450000Y-106800000D01*
X131450000Y-106800000D02*
X131500000Y-106850000D01*
D24*
%TO.N,+5V*%
X134000000Y-136785000D02*
X134000000Y-138000000D01*
X136240000Y-140240000D02*
X141750000Y-140240000D01*
X134000000Y-138000000D02*
X136240000Y-140240000D01*
%TO.N,/COLL*%
X124730000Y-133550000D02*
X124730000Y-136000000D01*
D25*
%TO.N,/F2*%
X118000000Y-110462500D02*
X118000000Y-135215000D01*
D24*
%TO.N,GND*%
X127270000Y-124450000D02*
X129000000Y-124450000D01*
X127270000Y-133550000D02*
X129000000Y-133550000D01*
D25*
%TO.N,/-LOAD*%
X124730000Y-137000000D02*
X123000000Y-137000000D01*
X121000000Y-115000000D02*
X124000000Y-112000000D01*
X127500000Y-137000000D02*
X124730000Y-137000000D01*
X130300000Y-141300000D02*
X130300000Y-139800000D01*
X123000000Y-137000000D02*
X121000000Y-135000000D01*
X130300000Y-139800000D02*
X127500000Y-137000000D01*
X121000000Y-135000000D02*
X121000000Y-115000000D01*
D23*
%TO.N,/LED*%
X124730000Y-122270000D02*
X128000000Y-119000000D01*
X124730000Y-124450000D02*
X124730000Y-122270000D01*
X128000000Y-119000000D02*
X132537500Y-119000000D01*
D25*
%TO.N,/+LOAD*%
X118000000Y-136785000D02*
X118000000Y-139000000D01*
X118000000Y-139000000D02*
X120300000Y-141300000D01*
X120300000Y-141300000D02*
X121800000Y-141300000D01*
%TD*%
%TA.AperFunction,Conductor*%
%TO.N,/F2*%
G36*
X119943039Y-109519685D02*
G01*
X119988794Y-109572489D01*
X120000000Y-109624000D01*
X120000000Y-114376000D01*
X119980315Y-114443039D01*
X119927511Y-114488794D01*
X119876000Y-114500000D01*
X116124000Y-114500000D01*
X116056961Y-114480315D01*
X116011206Y-114427511D01*
X116000000Y-114376000D01*
X116000000Y-109624000D01*
X116019685Y-109556961D01*
X116072489Y-109511206D01*
X116124000Y-109500000D01*
X119876000Y-109500000D01*
X119943039Y-109519685D01*
G37*
%TD.AperFunction*%
%TD*%
%TA.AperFunction,Conductor*%
%TO.N,/ZENER*%
G36*
X130943039Y-103519685D02*
G01*
X130988794Y-103572489D01*
X131000000Y-103624000D01*
X131000000Y-108376000D01*
X130980315Y-108443039D01*
X130927511Y-108488794D01*
X130876000Y-108500000D01*
X121124000Y-108500000D01*
X121056961Y-108480315D01*
X121011206Y-108427511D01*
X121000000Y-108376000D01*
X121000000Y-103624000D01*
X121019685Y-103556961D01*
X121072489Y-103511206D01*
X121124000Y-103500000D01*
X130876000Y-103500000D01*
X130943039Y-103519685D01*
G37*
%TD.AperFunction*%
%TD*%
%TA.AperFunction,Conductor*%
%TO.N,/-LOAD*%
G36*
X130943039Y-109519685D02*
G01*
X130988794Y-109572489D01*
X131000000Y-109624000D01*
X131000000Y-114376000D01*
X130980315Y-114443039D01*
X130927511Y-114488794D01*
X130876000Y-114500000D01*
X121124000Y-114500000D01*
X121056961Y-114480315D01*
X121011206Y-114427511D01*
X121000000Y-114376000D01*
X121000000Y-109624000D01*
X121019685Y-109556961D01*
X121072489Y-109511206D01*
X121124000Y-109500000D01*
X130876000Y-109500000D01*
X130943039Y-109519685D01*
G37*
%TD.AperFunction*%
%TD*%
%TA.AperFunction,Conductor*%
%TO.N,/ZENER*%
G36*
X119943039Y-103519685D02*
G01*
X119988794Y-103572489D01*
X120000000Y-103624000D01*
X120000000Y-108376000D01*
X119980315Y-108443039D01*
X119927511Y-108488794D01*
X119876000Y-108500000D01*
X116124000Y-108500000D01*
X116056961Y-108480315D01*
X116011206Y-108427511D01*
X116000000Y-108376000D01*
X116000000Y-103624000D01*
X116019685Y-103556961D01*
X116072489Y-103511206D01*
X116124000Y-103500000D01*
X119876000Y-103500000D01*
X119943039Y-103519685D01*
G37*
%TD.AperFunction*%
%TD*%
M02*
