%TF.GenerationSoftware,KiCad,Pcbnew,9.0.5-1.fc42*%
%TF.CreationDate,2025-11-07T12:43:21-08:00*%
%TF.ProjectId,adapter_relay_external,61646170-7465-4725-9f72-656c61795f65,1.0*%
%TF.SameCoordinates,Original*%
%TF.FileFunction,Paste,Bot*%
%TF.FilePolarity,Positive*%
%FSLAX46Y46*%
G04 Gerber Fmt 4.6, Leading zero omitted, Abs format (unit mm)*
G04 Created by KiCad (PCBNEW 9.0.5-1.fc42) date 2025-11-07 12:43:21*
%MOMM*%
%LPD*%
G01*
G04 APERTURE LIST*
G04 Aperture macros list*
%AMRoundRect*
0 Rectangle with rounded corners*
0 $1 Rounding radius*
0 $2 $3 $4 $5 $6 $7 $8 $9 X,Y pos of 4 corners*
0 Add a 4 corners polygon primitive as box body*
4,1,4,$2,$3,$4,$5,$6,$7,$8,$9,$2,$3,0*
0 Add four circle primitives for the rounded corners*
1,1,$1+$1,$2,$3*
1,1,$1+$1,$4,$5*
1,1,$1+$1,$6,$7*
1,1,$1+$1,$8,$9*
0 Add four rect primitives between the rounded corners*
20,1,$1+$1,$2,$3,$4,$5,0*
20,1,$1+$1,$4,$5,$6,$7,0*
20,1,$1+$1,$6,$7,$8,$9,0*
20,1,$1+$1,$8,$9,$2,$3,0*%
G04 Aperture macros list end*
%ADD10R,1.020000X0.950000*%
%ADD11R,1.550000X2.300000*%
%ADD12R,1.450000X2.100000*%
%ADD13RoundRect,0.250000X-1.075000X0.312500X-1.075000X-0.312500X1.075000X-0.312500X1.075000X0.312500X0*%
%ADD14R,2.600000X1.700000*%
%ADD15R,2.150000X2.250000*%
%ADD16RoundRect,0.250000X0.312500X0.625000X-0.312500X0.625000X-0.312500X-0.625000X0.312500X-0.625000X0*%
G04 APERTURE END LIST*
D10*
%TO.C,F1*%
X134000000Y-136785000D03*
X134000000Y-135215000D03*
%TD*%
D11*
%TO.C,D1*%
X134000000Y-106850000D03*
X134000000Y-111150000D03*
%TD*%
D12*
%TO.C,U1*%
X124730000Y-124450000D03*
X127270000Y-124450000D03*
X127270000Y-133550000D03*
X124730000Y-133550000D03*
%TD*%
D13*
%TO.C,R1*%
X118000000Y-107537500D03*
X118000000Y-110462500D03*
%TD*%
D14*
%TO.C,J2*%
X146350000Y-107220000D03*
X146350000Y-109760000D03*
X146350000Y-112300000D03*
X146350000Y-114840000D03*
X146350000Y-117380000D03*
X146350000Y-119920000D03*
X146350000Y-122460000D03*
X146350000Y-125000000D03*
X146350000Y-127540000D03*
X146350000Y-130080000D03*
X146350000Y-132620000D03*
X146350000Y-135160000D03*
X146350000Y-137700000D03*
X146350000Y-140240000D03*
X146350000Y-142780000D03*
X141750000Y-107220000D03*
X141750000Y-109760000D03*
X141750000Y-112300000D03*
X141750000Y-114840000D03*
X141750000Y-117380000D03*
X141750000Y-119920000D03*
X141750000Y-122460000D03*
X141750000Y-125000000D03*
X141750000Y-127540000D03*
X141750000Y-130080000D03*
X141750000Y-132620000D03*
X141750000Y-135160000D03*
X141750000Y-137700000D03*
X141750000Y-140240000D03*
X141750000Y-142780000D03*
%TD*%
D10*
%TO.C,F2*%
X118000000Y-135215000D03*
X118000000Y-136785000D03*
%TD*%
D15*
%TO.C,D2*%
X126000000Y-106800000D03*
X126000000Y-111200000D03*
%TD*%
D16*
%TO.C,R2*%
X135462500Y-119000000D03*
X132537500Y-119000000D03*
%TD*%
M02*
