%TF.GenerationSoftware,KiCad,Pcbnew,8.0.9-1.fc41*%
%TF.CreationDate,2025-08-14T11:22:57-07:00*%
%TF.ProjectId,adapter,61646170-7465-4722-9e6b-696361645f70,1.0*%
%TF.SameCoordinates,Original*%
%TF.FileFunction,Copper,L1,Top*%
%TF.FilePolarity,Positive*%
%FSLAX46Y46*%
G04 Gerber Fmt 4.6, Leading zero omitted, Abs format (unit mm)*
G04 Created by KiCad (PCBNEW 8.0.9-1.fc41) date 2025-08-14 11:22:57*
%MOMM*%
%LPD*%
G01*
G04 APERTURE LIST*
%TA.AperFunction,ComponentPad*%
%ADD10C,1.524000*%
%TD*%
%TA.AperFunction,SMDPad,CuDef*%
%ADD11R,2.600000X1.700000*%
%TD*%
%TA.AperFunction,ViaPad*%
%ADD12C,0.700000*%
%TD*%
%TA.AperFunction,ViaPad*%
%ADD13C,0.600000*%
%TD*%
%TA.AperFunction,Conductor*%
%ADD14C,0.200000*%
%TD*%
G04 APERTURE END LIST*
D10*
%TO.P,REF\u002A\u002A,0003*%
%TO.N,N/C*%
X109760000Y-102140000D03*
%TO.P,REF\u002A\u002A,0004*%
X112300000Y-102140000D03*
%TO.P,REF\u002A\u002A,0005*%
X114840000Y-102140000D03*
%TO.P,REF\u002A\u002A,0006*%
X117380000Y-102140000D03*
%TO.P,REF\u002A\u002A,0007*%
X119920000Y-102140000D03*
%TO.P,REF\u002A\u002A,0008*%
X122460000Y-102140000D03*
%TO.P,REF\u002A\u002A,0009*%
X125000000Y-102140000D03*
%TO.P,REF\u002A\u002A,0010*%
X127540000Y-102140000D03*
%TO.P,REF\u002A\u002A,0011*%
X130080000Y-102140000D03*
%TO.P,REF\u002A\u002A,0012*%
X132620000Y-102140000D03*
%TO.P,REF\u002A\u002A,0013*%
X135160000Y-102140000D03*
%TO.P,REF\u002A\u002A,0103*%
X109760000Y-104680000D03*
%TO.P,REF\u002A\u002A,0104*%
X112300000Y-104680000D03*
%TO.P,REF\u002A\u002A,0105*%
X114840000Y-104680000D03*
%TO.P,REF\u002A\u002A,0106*%
X117380000Y-104680000D03*
%TO.P,REF\u002A\u002A,0107*%
X119920000Y-104680000D03*
%TO.P,REF\u002A\u002A,0108*%
X122460000Y-104680000D03*
%TO.P,REF\u002A\u002A,0109*%
X125000000Y-104680000D03*
%TO.P,REF\u002A\u002A,0110*%
X127540000Y-104680000D03*
%TO.P,REF\u002A\u002A,0111*%
X130080000Y-104680000D03*
%TO.P,REF\u002A\u002A,0112*%
X132620000Y-104680000D03*
%TO.P,REF\u002A\u002A,0113*%
X135160000Y-104680000D03*
%TO.P,REF\u002A\u002A,0114*%
X137700000Y-104680000D03*
%TO.P,REF\u002A\u002A,0115*%
X140240000Y-104680000D03*
%TO.P,REF\u002A\u002A,0200*%
X102140000Y-107220000D03*
%TO.P,REF\u002A\u002A,0201*%
X104680000Y-107220000D03*
%TO.P,REF\u002A\u002A,0202*%
X107220000Y-107220000D03*
%TO.P,REF\u002A\u002A,0203*%
X109760000Y-107220000D03*
%TO.P,REF\u002A\u002A,0204*%
X112300000Y-107220000D03*
%TO.P,REF\u002A\u002A,0205*%
X114840000Y-107220000D03*
%TO.P,REF\u002A\u002A,0206*%
X117380000Y-107220000D03*
%TO.P,REF\u002A\u002A,0207*%
X119920000Y-107220000D03*
%TO.P,REF\u002A\u002A,0208*%
X122460000Y-107220000D03*
%TO.P,REF\u002A\u002A,0209*%
X125000000Y-107220000D03*
%TO.P,REF\u002A\u002A,0210*%
X127540000Y-107220000D03*
%TO.P,REF\u002A\u002A,0211*%
X130080000Y-107220000D03*
%TO.P,REF\u002A\u002A,0212*%
X132620000Y-107220000D03*
%TO.P,REF\u002A\u002A,0213*%
X135160000Y-107220000D03*
%TO.P,REF\u002A\u002A,0300*%
X102140000Y-109760000D03*
%TO.P,REF\u002A\u002A,0301*%
X104680000Y-109760000D03*
%TO.P,REF\u002A\u002A,0302*%
X107220000Y-109760000D03*
%TO.P,REF\u002A\u002A,0303*%
X109760000Y-109760000D03*
%TO.P,REF\u002A\u002A,0304*%
X112300000Y-109760000D03*
%TO.P,REF\u002A\u002A,0305*%
X114840000Y-109760000D03*
%TO.P,REF\u002A\u002A,0306*%
X117380000Y-109760000D03*
%TO.P,REF\u002A\u002A,0307*%
X119920000Y-109760000D03*
%TO.P,REF\u002A\u002A,0308*%
X122460000Y-109760000D03*
%TO.P,REF\u002A\u002A,0309*%
X125000000Y-109760000D03*
%TO.P,REF\u002A\u002A,0310*%
X127540000Y-109760000D03*
%TO.P,REF\u002A\u002A,0311*%
X130080000Y-109760000D03*
%TO.P,REF\u002A\u002A,0312*%
X132620000Y-109760000D03*
%TO.P,REF\u002A\u002A,0313*%
X135160000Y-109760000D03*
%TO.P,REF\u002A\u002A,0400*%
X102140000Y-112300000D03*
%TO.P,REF\u002A\u002A,0401*%
X104680000Y-112300000D03*
%TO.P,REF\u002A\u002A,0402*%
X107220000Y-112300000D03*
%TO.P,REF\u002A\u002A,0403*%
X109760000Y-112300000D03*
%TO.P,REF\u002A\u002A,0404*%
X112300000Y-112300000D03*
%TO.P,REF\u002A\u002A,0405*%
X114840000Y-112300000D03*
%TO.P,REF\u002A\u002A,0406*%
X117380000Y-112300000D03*
%TO.P,REF\u002A\u002A,0407*%
X119920000Y-112300000D03*
%TO.P,REF\u002A\u002A,0408*%
X122460000Y-112300000D03*
%TO.P,REF\u002A\u002A,0409*%
X125000000Y-112300000D03*
%TO.P,REF\u002A\u002A,0410*%
X127540000Y-112300000D03*
%TO.P,REF\u002A\u002A,0411*%
X130080000Y-112300000D03*
%TO.P,REF\u002A\u002A,0412*%
X132620000Y-112300000D03*
%TO.P,REF\u002A\u002A,0413*%
X135160000Y-112300000D03*
%TO.P,REF\u002A\u002A,0500*%
X102140000Y-114840000D03*
%TO.P,REF\u002A\u002A,0501*%
X104680000Y-114840000D03*
%TO.P,REF\u002A\u002A,0502*%
X107220000Y-114840000D03*
%TO.P,REF\u002A\u002A,0503*%
X109760000Y-114840000D03*
%TO.P,REF\u002A\u002A,0504*%
X112300000Y-114840000D03*
%TO.P,REF\u002A\u002A,0505*%
X114840000Y-114840000D03*
%TO.P,REF\u002A\u002A,0506*%
X117380000Y-114840000D03*
%TO.P,REF\u002A\u002A,0507*%
X119920000Y-114840000D03*
%TO.P,REF\u002A\u002A,0508*%
X122460000Y-114840000D03*
%TO.P,REF\u002A\u002A,0509*%
X125000000Y-114840000D03*
%TO.P,REF\u002A\u002A,0510*%
X127540000Y-114840000D03*
%TO.P,REF\u002A\u002A,0511*%
X130080000Y-114840000D03*
%TO.P,REF\u002A\u002A,0512*%
X132620000Y-114840000D03*
%TO.P,REF\u002A\u002A,0513*%
X135160000Y-114840000D03*
%TO.P,REF\u002A\u002A,0600*%
X102140000Y-117380000D03*
%TO.P,REF\u002A\u002A,0601*%
X104680000Y-117380000D03*
%TO.P,REF\u002A\u002A,0602*%
X107220000Y-117380000D03*
%TO.P,REF\u002A\u002A,0603*%
X109760000Y-117380000D03*
%TO.P,REF\u002A\u002A,0604*%
X112300000Y-117380000D03*
%TO.P,REF\u002A\u002A,0605*%
X114840000Y-117380000D03*
%TO.P,REF\u002A\u002A,0606*%
X117380000Y-117380000D03*
%TO.P,REF\u002A\u002A,0607*%
X119920000Y-117380000D03*
%TO.P,REF\u002A\u002A,0608*%
X122460000Y-117380000D03*
%TO.P,REF\u002A\u002A,0609*%
X125000000Y-117380000D03*
%TO.P,REF\u002A\u002A,0610*%
X127540000Y-117380000D03*
%TO.P,REF\u002A\u002A,0611*%
X130080000Y-117380000D03*
%TO.P,REF\u002A\u002A,0612*%
X132620000Y-117380000D03*
%TO.P,REF\u002A\u002A,0613*%
X135160000Y-117380000D03*
%TO.P,REF\u002A\u002A,0700*%
X102140000Y-119920000D03*
%TO.P,REF\u002A\u002A,0701*%
X104680000Y-119920000D03*
%TO.P,REF\u002A\u002A,0702*%
X107220000Y-119920000D03*
%TO.P,REF\u002A\u002A,0703*%
X109760000Y-119920000D03*
%TO.P,REF\u002A\u002A,0704*%
X112300000Y-119920000D03*
%TO.P,REF\u002A\u002A,0705*%
X114840000Y-119920000D03*
%TO.P,REF\u002A\u002A,0706*%
X117380000Y-119920000D03*
%TO.P,REF\u002A\u002A,0707*%
X119920000Y-119920000D03*
%TO.P,REF\u002A\u002A,0708*%
X122460000Y-119920000D03*
%TO.P,REF\u002A\u002A,0709*%
X125000000Y-119920000D03*
%TO.P,REF\u002A\u002A,0710*%
X127540000Y-119920000D03*
%TO.P,REF\u002A\u002A,0711*%
X130080000Y-119920000D03*
%TO.P,REF\u002A\u002A,0712*%
X132620000Y-119920000D03*
%TO.P,REF\u002A\u002A,0713*%
X135160000Y-119920000D03*
%TO.P,REF\u002A\u002A,0800*%
X102140000Y-122460000D03*
%TO.P,REF\u002A\u002A,0801*%
X104680000Y-122460000D03*
%TO.P,REF\u002A\u002A,0802*%
X107220000Y-122460000D03*
%TO.P,REF\u002A\u002A,0803*%
X109760000Y-122460000D03*
%TO.P,REF\u002A\u002A,0804*%
X112300000Y-122460000D03*
%TO.P,REF\u002A\u002A,0805*%
X114840000Y-122460000D03*
%TO.P,REF\u002A\u002A,0806*%
X117380000Y-122460000D03*
%TO.P,REF\u002A\u002A,0807*%
X119920000Y-122460000D03*
%TO.P,REF\u002A\u002A,0808*%
X122460000Y-122460000D03*
%TO.P,REF\u002A\u002A,0809*%
X125000000Y-122460000D03*
%TO.P,REF\u002A\u002A,0810*%
X127540000Y-122460000D03*
%TO.P,REF\u002A\u002A,0811*%
X130080000Y-122460000D03*
%TO.P,REF\u002A\u002A,0812*%
X132620000Y-122460000D03*
%TO.P,REF\u002A\u002A,0813*%
X135160000Y-122460000D03*
%TO.P,REF\u002A\u002A,0900*%
X102140000Y-125000000D03*
%TO.P,REF\u002A\u002A,0901*%
X104680000Y-125000000D03*
%TO.P,REF\u002A\u002A,0902*%
X107220000Y-125000000D03*
%TO.P,REF\u002A\u002A,0903*%
X109760000Y-125000000D03*
%TO.P,REF\u002A\u002A,0904*%
X112300000Y-125000000D03*
%TO.P,REF\u002A\u002A,0905*%
X114840000Y-125000000D03*
%TO.P,REF\u002A\u002A,0906*%
X117380000Y-125000000D03*
%TO.P,REF\u002A\u002A,0907*%
X119920000Y-125000000D03*
%TO.P,REF\u002A\u002A,0908*%
X122460000Y-125000000D03*
%TO.P,REF\u002A\u002A,0909*%
X125000000Y-125000000D03*
%TO.P,REF\u002A\u002A,0910*%
X127540000Y-125000000D03*
%TO.P,REF\u002A\u002A,0911*%
X130080000Y-125000000D03*
%TO.P,REF\u002A\u002A,0912*%
X132620000Y-125000000D03*
%TO.P,REF\u002A\u002A,0913*%
X135160000Y-125000000D03*
%TO.P,REF\u002A\u002A,1000*%
X102140000Y-127540000D03*
%TO.P,REF\u002A\u002A,1001*%
X104680000Y-127540000D03*
%TO.P,REF\u002A\u002A,1002*%
X107220000Y-127540000D03*
%TO.P,REF\u002A\u002A,1003*%
X109760000Y-127540000D03*
%TO.P,REF\u002A\u002A,1004*%
X112300000Y-127540000D03*
%TO.P,REF\u002A\u002A,1005*%
X114840000Y-127540000D03*
%TO.P,REF\u002A\u002A,1006*%
X117380000Y-127540000D03*
%TO.P,REF\u002A\u002A,1007*%
X119920000Y-127540000D03*
%TO.P,REF\u002A\u002A,1008*%
X122460000Y-127540000D03*
%TO.P,REF\u002A\u002A,1009*%
X125000000Y-127540000D03*
%TO.P,REF\u002A\u002A,1010*%
X127540000Y-127540000D03*
%TO.P,REF\u002A\u002A,1011*%
X130080000Y-127540000D03*
%TO.P,REF\u002A\u002A,1012*%
X132620000Y-127540000D03*
%TO.P,REF\u002A\u002A,1013*%
X135160000Y-127540000D03*
%TO.P,REF\u002A\u002A,1100*%
X102140000Y-130080000D03*
%TO.P,REF\u002A\u002A,1101*%
X104680000Y-130080000D03*
%TO.P,REF\u002A\u002A,1102*%
X107220000Y-130080000D03*
%TO.P,REF\u002A\u002A,1103*%
X109760000Y-130080000D03*
%TO.P,REF\u002A\u002A,1104*%
X112300000Y-130080000D03*
%TO.P,REF\u002A\u002A,1105*%
X114840000Y-130080000D03*
%TO.P,REF\u002A\u002A,1106*%
X117380000Y-130080000D03*
%TO.P,REF\u002A\u002A,1107*%
X119920000Y-130080000D03*
%TO.P,REF\u002A\u002A,1108*%
X122460000Y-130080000D03*
%TO.P,REF\u002A\u002A,1109*%
X125000000Y-130080000D03*
%TO.P,REF\u002A\u002A,1110*%
X127540000Y-130080000D03*
%TO.P,REF\u002A\u002A,1111*%
X130080000Y-130080000D03*
%TO.P,REF\u002A\u002A,1112*%
X132620000Y-130080000D03*
%TO.P,REF\u002A\u002A,1113*%
X135160000Y-130080000D03*
%TO.P,REF\u002A\u002A,1200*%
X102140000Y-132620000D03*
%TO.P,REF\u002A\u002A,1201*%
X104680000Y-132620000D03*
%TO.P,REF\u002A\u002A,1202*%
X107220000Y-132620000D03*
%TO.P,REF\u002A\u002A,1203*%
X109760000Y-132620000D03*
%TO.P,REF\u002A\u002A,1204*%
X112300000Y-132620000D03*
%TO.P,REF\u002A\u002A,1205*%
X114840000Y-132620000D03*
%TO.P,REF\u002A\u002A,1206*%
X117380000Y-132620000D03*
%TO.P,REF\u002A\u002A,1207*%
X119920000Y-132620000D03*
%TO.P,REF\u002A\u002A,1208*%
X122460000Y-132620000D03*
%TO.P,REF\u002A\u002A,1209*%
X125000000Y-132620000D03*
%TO.P,REF\u002A\u002A,1210*%
X127540000Y-132620000D03*
%TO.P,REF\u002A\u002A,1211*%
X130080000Y-132620000D03*
%TO.P,REF\u002A\u002A,1212*%
X132620000Y-132620000D03*
%TO.P,REF\u002A\u002A,1213*%
X135160000Y-132620000D03*
%TO.P,REF\u002A\u002A,1300*%
X102140000Y-135160000D03*
%TO.P,REF\u002A\u002A,1301*%
X104680000Y-135160000D03*
%TO.P,REF\u002A\u002A,1302*%
X107220000Y-135160000D03*
%TO.P,REF\u002A\u002A,1303*%
X109760000Y-135160000D03*
%TO.P,REF\u002A\u002A,1304*%
X112300000Y-135160000D03*
%TO.P,REF\u002A\u002A,1305*%
X114840000Y-135160000D03*
%TO.P,REF\u002A\u002A,1306*%
X117380000Y-135160000D03*
%TO.P,REF\u002A\u002A,1307*%
X119920000Y-135160000D03*
%TO.P,REF\u002A\u002A,1308*%
X122460000Y-135160000D03*
%TO.P,REF\u002A\u002A,1309*%
X125000000Y-135160000D03*
%TO.P,REF\u002A\u002A,1310*%
X127540000Y-135160000D03*
%TO.P,REF\u002A\u002A,1311*%
X130080000Y-135160000D03*
%TO.P,REF\u002A\u002A,1312*%
X132620000Y-135160000D03*
%TO.P,REF\u002A\u002A,1313*%
X135160000Y-135160000D03*
%TO.P,REF\u002A\u002A,1400*%
X102140000Y-137700000D03*
%TO.P,REF\u002A\u002A,1401*%
X104680000Y-137700000D03*
%TO.P,REF\u002A\u002A,1402*%
X107220000Y-137700000D03*
%TO.P,REF\u002A\u002A,1403*%
X109760000Y-137700000D03*
%TO.P,REF\u002A\u002A,1404*%
X112300000Y-137700000D03*
%TO.P,REF\u002A\u002A,1405*%
X114840000Y-137700000D03*
%TO.P,REF\u002A\u002A,1406*%
X117380000Y-137700000D03*
%TO.P,REF\u002A\u002A,1407*%
X119920000Y-137700000D03*
%TO.P,REF\u002A\u002A,1408*%
X122460000Y-137700000D03*
%TO.P,REF\u002A\u002A,1409*%
X125000000Y-137700000D03*
%TO.P,REF\u002A\u002A,1410*%
X127540000Y-137700000D03*
%TO.P,REF\u002A\u002A,1411*%
X130080000Y-137700000D03*
%TO.P,REF\u002A\u002A,1412*%
X132620000Y-137700000D03*
%TO.P,REF\u002A\u002A,1413*%
X135160000Y-137700000D03*
%TO.P,REF\u002A\u002A,1500*%
X102140000Y-140240000D03*
%TO.P,REF\u002A\u002A,1501*%
X104680000Y-140240000D03*
%TO.P,REF\u002A\u002A,1502*%
X107220000Y-140240000D03*
%TO.P,REF\u002A\u002A,1503*%
X109760000Y-140240000D03*
%TO.P,REF\u002A\u002A,1504*%
X112300000Y-140240000D03*
%TO.P,REF\u002A\u002A,1505*%
X114840000Y-140240000D03*
%TO.P,REF\u002A\u002A,1506*%
X117380000Y-140240000D03*
%TO.P,REF\u002A\u002A,1507*%
X119920000Y-140240000D03*
%TO.P,REF\u002A\u002A,1508*%
X122460000Y-140240000D03*
%TO.P,REF\u002A\u002A,1509*%
X125000000Y-140240000D03*
%TO.P,REF\u002A\u002A,1510*%
X127540000Y-140240000D03*
%TO.P,REF\u002A\u002A,1511*%
X130080000Y-140240000D03*
%TO.P,REF\u002A\u002A,1512*%
X132620000Y-140240000D03*
%TO.P,REF\u002A\u002A,1513*%
X135160000Y-140240000D03*
%TO.P,REF\u002A\u002A,1600*%
X102140000Y-142780000D03*
%TO.P,REF\u002A\u002A,1601*%
X104680000Y-142780000D03*
%TO.P,REF\u002A\u002A,1602*%
X107220000Y-142780000D03*
%TO.P,REF\u002A\u002A,1603*%
X109760000Y-142780000D03*
%TO.P,REF\u002A\u002A,1604*%
X112300000Y-142780000D03*
%TO.P,REF\u002A\u002A,1605*%
X114840000Y-142780000D03*
%TO.P,REF\u002A\u002A,1606*%
X117380000Y-142780000D03*
%TO.P,REF\u002A\u002A,1607*%
X119920000Y-142780000D03*
%TO.P,REF\u002A\u002A,1608*%
X122460000Y-142780000D03*
%TO.P,REF\u002A\u002A,1609*%
X125000000Y-142780000D03*
%TO.P,REF\u002A\u002A,1610*%
X127540000Y-142780000D03*
%TO.P,REF\u002A\u002A,1611*%
X130080000Y-142780000D03*
%TO.P,REF\u002A\u002A,1612*%
X132620000Y-142780000D03*
%TO.P,REF\u002A\u002A,1613*%
X135160000Y-142780000D03*
%TO.P,REF\u002A\u002A,1703*%
X109760000Y-145320000D03*
%TO.P,REF\u002A\u002A,1704*%
X112300000Y-145320000D03*
%TO.P,REF\u002A\u002A,1705*%
X114840000Y-145320000D03*
%TO.P,REF\u002A\u002A,1706*%
X117380000Y-145320000D03*
%TO.P,REF\u002A\u002A,1707*%
X119920000Y-145320000D03*
%TO.P,REF\u002A\u002A,1708*%
X122460000Y-145320000D03*
%TO.P,REF\u002A\u002A,1709*%
X125000000Y-145320000D03*
%TO.P,REF\u002A\u002A,1710*%
X127540000Y-145320000D03*
%TO.P,REF\u002A\u002A,1711*%
X130080000Y-145320000D03*
%TO.P,REF\u002A\u002A,1712*%
X132620000Y-145320000D03*
%TO.P,REF\u002A\u002A,1713*%
X135160000Y-145320000D03*
%TO.P,REF\u002A\u002A,1714*%
X137700000Y-145320000D03*
%TO.P,REF\u002A\u002A,1715*%
X140240000Y-145320000D03*
%TO.P,REF\u002A\u002A,1803*%
X109760000Y-147860000D03*
%TO.P,REF\u002A\u002A,1804*%
X112300000Y-147860000D03*
%TO.P,REF\u002A\u002A,1805*%
X114840000Y-147860000D03*
%TO.P,REF\u002A\u002A,1806*%
X117380000Y-147860000D03*
%TO.P,REF\u002A\u002A,1807*%
X119920000Y-147860000D03*
%TO.P,REF\u002A\u002A,1808*%
X122460000Y-147860000D03*
%TO.P,REF\u002A\u002A,1809*%
X125000000Y-147860000D03*
%TO.P,REF\u002A\u002A,1810*%
X127540000Y-147860000D03*
%TO.P,REF\u002A\u002A,1811*%
X130080000Y-147860000D03*
%TO.P,REF\u002A\u002A,1812*%
X132620000Y-147860000D03*
%TO.P,REF\u002A\u002A,1813*%
X135160000Y-147860000D03*
%TO.P,REF\u002A\u002A,1814*%
X137700000Y-147860000D03*
%TO.P,REF\u002A\u002A,1815*%
X140240000Y-147860000D03*
%TD*%
D11*
%TO.P,J1,000,GND*%
%TO.N,/GND0*%
X146350000Y-107220000D03*
%TO.P,J1,001,GND*%
%TO.N,/GND1*%
X146350000Y-109760000D03*
%TO.P,J1,002,GND*%
%TO.N,/GND2*%
X146350000Y-112300000D03*
%TO.P,J1,003,G37\u00B7SPI_MOSI*%
%TO.N,unconnected-(J1-G37\u00B7SPI_MOSI-Pad003)*%
X146350000Y-114840000D03*
%TO.P,J1,004,G35\u00B7SPI_MISO*%
%TO.N,unconnected-(J1-G35\u00B7SPI_MISO-Pad004)*%
X146350000Y-117380000D03*
%TO.P,J1,005,G36\u00B7SPI_CLK*%
%TO.N,unconnected-(J1-G36\u00B7SPI_CLK-Pad005)*%
X146350000Y-119920000D03*
%TO.P,J1,006,G44/RXD0\u00B7*%
%TO.N,/G44{slash}RXD0\u00B7*%
X146350000Y-122460000D03*
%TO.P,J1,007,G18/PC_RX\u00B7*%
%TO.N,/G18{slash}PC_RX\u00B7*%
X146350000Y-125000000D03*
%TO.P,J1,008,G12/In_SDA\u00B7*%
%TO.N,/G12{slash}In_SDA\u00B7*%
X146350000Y-127540000D03*
%TO.P,J1,009,G2/PA_SDA\u00B7*%
%TO.N,/G2{slash}PA_SDA\u00B7*%
X146350000Y-130080000D03*
%TO.P,J1,010,G6\u00B7*%
%TO.N,/G6\u00B7SPI_CLK*%
X146350000Y-132620000D03*
%TO.P,J1,011,G13/I2S_DOUT\u00B7RS232_TX/RS485_TX*%
%TO.N,/G13{slash}I2S_DOUT\u00B7RS232_TX{slash}RS485_TX*%
X146350000Y-135160000D03*
%TO.P,J1,012,HPWR*%
%TO.N,/HPWR0*%
X146350000Y-137700000D03*
%TO.P,J1,013,HPWR*%
%TO.N,/HPWR1*%
X146350000Y-140240000D03*
%TO.P,J1,014,HPWR*%
%TO.N,/HPWR2*%
X146350000Y-142780000D03*
%TO.P,J1,100,G10\u00B7*%
%TO.N,/G10\u00B7SPI_MOSI*%
X141750000Y-107220000D03*
%TO.P,J1,101,G8\u00B7*%
%TO.N,/G8\u00B7SPI_MISO*%
X141750000Y-109760000D03*
%TO.P,J1,102,RST/EN\u00B7*%
%TO.N,/RST{slash}EN\u00B7*%
X141750000Y-112300000D03*
%TO.P,J1,103,G5\u00B7*%
%TO.N,/G5\u00B7*%
X141750000Y-114840000D03*
%TO.P,J1,104,G9\u00B7CS*%
%TO.N,/G9\u00B7CS*%
X141750000Y-117380000D03*
%TO.P,J1,105,3V3*%
%TO.N,/3V3*%
X141750000Y-119920000D03*
%TO.P,J1,106,G43/TXD0\u00B7*%
%TO.N,/G43{slash}TXD0\u00B7*%
X141750000Y-122460000D03*
%TO.P,J1,107,G17/PC_TX\u00B7*%
%TO.N,/G17{slash}PC_TX\u00B7*%
X141750000Y-125000000D03*
%TO.P,J1,108,G11/In_SCL\u00B7*%
%TO.N,/G11{slash}In_CL\u00B7*%
X141750000Y-127540000D03*
%TO.P,J1,109,G1/PA_SCL\u00B7RS232_RX/RS485_RX*%
%TO.N,/G1{slash}PA_SCL\u00B7RS232_RX{slash}RS485_RX*%
X141750000Y-130080000D03*
%TO.P,J1,110,G7\u00B7RST*%
%TO.N,/G7\u00B7RST*%
X141750000Y-132620000D03*
%TO.P,J1,111,G0/I2S_LRCK\u00B7*%
%TO.N,/G0{slash}I2S_LRCK\u00B7*%
X141750000Y-135160000D03*
%TO.P,J1,112,G14/I2S_DIN\u00B7INT*%
%TO.N,/G14{slash}I2S_DIN\u00B7INT*%
X141750000Y-137700000D03*
%TO.P,J1,113,5V*%
%TO.N,/5V*%
X141750000Y-140240000D03*
%TO.P,J1,114,BAT*%
%TO.N,/BAT*%
X141750000Y-142780000D03*
%TD*%
D12*
%TO.N,/BAT*%
X141000000Y-142780000D03*
X142500000Y-142780000D03*
%TO.N,/G9\u00B7CS*%
X142500000Y-117380000D03*
X141000000Y-117380000D03*
%TO.N,/G13{slash}I2S_DOUT\u00B7RS232_TX{slash}RS485_TX*%
X145600000Y-135160000D03*
X147100000Y-135160000D03*
%TO.N,/G43{slash}TXD0\u00B7*%
X142500000Y-122460000D03*
X141000000Y-122460000D03*
%TO.N,/HPWR0*%
X147100000Y-137700000D03*
X145600000Y-137700000D03*
%TO.N,/G0{slash}I2S_LRCK\u00B7*%
X141000000Y-135160000D03*
X142500000Y-135160000D03*
%TO.N,/G5\u00B7*%
X142500000Y-114840000D03*
X141000000Y-114840000D03*
%TO.N,/GND1*%
X147100000Y-109760000D03*
X145600000Y-109760000D03*
D13*
%TO.N,/G6\u00B7SPI_CLK*%
X144050000Y-120555000D03*
D12*
%TO.N,/G44{slash}RXD0\u00B7*%
X145600000Y-122460000D03*
X147100000Y-122460000D03*
%TO.N,/G12{slash}In_SDA\u00B7*%
X145600000Y-127540000D03*
X147100000Y-127540000D03*
%TO.N,/HPWR1*%
X147100000Y-140240000D03*
X145600000Y-140240000D03*
%TO.N,/G17{slash}PC_TX\u00B7*%
X142500000Y-125000000D03*
X141000000Y-125000000D03*
%TO.N,/GND0*%
X145600000Y-107220000D03*
X147100000Y-107220000D03*
%TO.N,/GND2*%
X145600000Y-112300000D03*
X147100000Y-112300000D03*
%TO.N,/3V3*%
X142500000Y-119920000D03*
X141000000Y-119920000D03*
D13*
%TO.N,/G10\u00B7SPI_MOSI*%
X139605000Y-108490000D03*
D12*
%TO.N,/G1{slash}PA_SCL\u00B7RS232_RX{slash}RS485_RX*%
X142500000Y-130080000D03*
X141000000Y-130080000D03*
%TO.N,/G18{slash}PC_RX\u00B7*%
X147100000Y-125000000D03*
X145600000Y-125000000D03*
%TO.N,/HPWR2*%
X145600000Y-142780000D03*
X147100000Y-142780000D03*
D13*
%TO.N,/G8\u00B7SPI_MISO*%
X144050000Y-116745000D03*
D12*
%TO.N,/RST{slash}EN\u00B7*%
X142500000Y-112300000D03*
X141000000Y-112300000D03*
%TO.N,/G14{slash}I2S_DIN\u00B7INT*%
X141000000Y-137700000D03*
X142500000Y-137700000D03*
%TO.N,/G2{slash}PA_SDA\u00B7*%
X147100000Y-130080000D03*
X145600000Y-130080000D03*
%TO.N,/5V*%
X141000000Y-140240000D03*
X142500000Y-140240000D03*
%TO.N,/G11{slash}In_CL\u00B7*%
X141000000Y-127540000D03*
X142500000Y-127540000D03*
%TO.N,/G7\u00B7RST*%
X141000000Y-132620000D03*
X142500000Y-132620000D03*
%TD*%
D14*
%TO.N,/G6\u00B7SPI_CLK*%
X144685000Y-132620000D02*
X144050000Y-131985000D01*
X146350000Y-132620000D02*
X144685000Y-132620000D01*
X144050000Y-131985000D02*
X144050000Y-120555000D01*
%TO.N,/G10\u00B7SPI_MOSI*%
X141750000Y-107220000D02*
X140875000Y-107220000D01*
X140875000Y-107220000D02*
X139605000Y-108490000D01*
%TO.N,/G8\u00B7SPI_MISO*%
X139605000Y-111030000D02*
X139605000Y-115445000D01*
X143415000Y-116110000D02*
X144050000Y-116745000D01*
X140270000Y-116110000D02*
X143415000Y-116110000D01*
X140875000Y-109760000D02*
X139605000Y-111030000D01*
X139605000Y-115445000D02*
X140270000Y-116110000D01*
X141750000Y-109760000D02*
X140875000Y-109760000D01*
%TD*%
M02*
