M48
; DRILL file {KiCad 8.0.9-1.fc41} date 2025-08-14T11:22:52-0700
; FORMAT={-:-/ absolute / inch / decimal}
; #@! TF.CreationDate,2025-08-14T11:22:52-07:00
; #@! TF.GenerationSoftware,Kicad,Pcbnew,8.0.9-1.fc41
; #@! TF.FileFunction,Plated,1,2,PTH
FMAT,2
INCH
; #@! TA.AperFunction,Plated,PTH,ViaDrill
T1C0.0118
; #@! TA.AperFunction,Plated,PTH,ViaDrill
T2C0.0157
; #@! TA.AperFunction,Plated,PTH,ComponentDrill
T3C0.0300
%
G90
G05
T1
X5.4963Y-4.2713
X5.6713Y-4.5963
X5.6713Y-4.7463
T2
X5.5512Y-4.4213
X5.5512Y-4.5213
X5.5512Y-4.6213
X5.5512Y-4.7213
X5.5512Y-4.8213
X5.5512Y-4.9213
X5.5512Y-5.0213
X5.5512Y-5.1213
X5.5512Y-5.2213
X5.5512Y-5.3213
X5.5512Y-5.4213
X5.5512Y-5.5213
X5.5512Y-5.6213
X5.6102Y-4.4213
X5.6102Y-4.5213
X5.6102Y-4.6213
X5.6102Y-4.7213
X5.6102Y-4.8213
X5.6102Y-4.9213
X5.6102Y-5.0213
X5.6102Y-5.1213
X5.6102Y-5.2213
X5.6102Y-5.3213
X5.6102Y-5.4213
X5.6102Y-5.5213
X5.6102Y-5.6213
X5.7323Y-4.2213
X5.7323Y-4.3213
X5.7323Y-4.4213
X5.7323Y-4.8213
X5.7323Y-4.9213
X5.7323Y-5.0213
X5.7323Y-5.1213
X5.7323Y-5.3213
X5.7323Y-5.4213
X5.7323Y-5.5213
X5.7323Y-5.6213
X5.7913Y-4.2213
X5.7913Y-4.3213
X5.7913Y-4.4213
X5.7913Y-4.8213
X5.7913Y-4.9213
X5.7913Y-5.0213
X5.7913Y-5.1213
X5.7913Y-5.3213
X5.7913Y-5.4213
X5.7913Y-5.5213
X5.7913Y-5.6213
T3
X4.0213Y-4.2213
X4.0213Y-4.3213
X4.0213Y-4.4213
X4.0213Y-4.5213
X4.0213Y-4.6213
X4.0213Y-4.7213
X4.0213Y-4.8213
X4.0213Y-4.9213
X4.0213Y-5.0213
X4.0213Y-5.1213
X4.0213Y-5.2213
X4.0213Y-5.3213
X4.0213Y-5.4213
X4.0213Y-5.5213
X4.0213Y-5.6213
X4.1213Y-4.2213
X4.1213Y-4.3213
X4.1213Y-4.4213
X4.1213Y-4.5213
X4.1213Y-4.6213
X4.1213Y-4.7213
X4.1213Y-4.8213
X4.1213Y-4.9213
X4.1213Y-5.0213
X4.1213Y-5.1213
X4.1213Y-5.2213
X4.1213Y-5.3213
X4.1213Y-5.4213
X4.1213Y-5.5213
X4.1213Y-5.6213
X4.2213Y-4.2213
X4.2213Y-4.3213
X4.2213Y-4.4213
X4.2213Y-4.5213
X4.2213Y-4.6213
X4.2213Y-4.7213
X4.2213Y-4.8213
X4.2213Y-4.9213
X4.2213Y-5.0213
X4.2213Y-5.1213
X4.2213Y-5.2213
X4.2213Y-5.3213
X4.2213Y-5.4213
X4.2213Y-5.5213
X4.2213Y-5.6213
X4.3213Y-4.0213
X4.3213Y-4.1213
X4.3213Y-4.2213
X4.3213Y-4.3213
X4.3213Y-4.4213
X4.3213Y-4.5213
X4.3213Y-4.6213
X4.3213Y-4.7213
X4.3213Y-4.8213
X4.3213Y-4.9213
X4.3213Y-5.0213
X4.3213Y-5.1213
X4.3213Y-5.2213
X4.3213Y-5.3213
X4.3213Y-5.4213
X4.3213Y-5.5213
X4.3213Y-5.6213
X4.3213Y-5.7213
X4.3213Y-5.8213
X4.4213Y-4.0213
X4.4213Y-4.1213
X4.4213Y-4.2213
X4.4213Y-4.3213
X4.4213Y-4.4213
X4.4213Y-4.5213
X4.4213Y-4.6213
X4.4213Y-4.7213
X4.4213Y-4.8213
X4.4213Y-4.9213
X4.4213Y-5.0213
X4.4213Y-5.1213
X4.4213Y-5.2213
X4.4213Y-5.3213
X4.4213Y-5.4213
X4.4213Y-5.5213
X4.4213Y-5.6213
X4.4213Y-5.7213
X4.4213Y-5.8213
X4.5213Y-4.0213
X4.5213Y-4.1213
X4.5213Y-4.2213
X4.5213Y-4.3213
X4.5213Y-4.4213
X4.5213Y-4.5213
X4.5213Y-4.6213
X4.5213Y-4.7213
X4.5213Y-4.8213
X4.5213Y-4.9213
X4.5213Y-5.0213
X4.5213Y-5.1213
X4.5213Y-5.2213
X4.5213Y-5.3213
X4.5213Y-5.4213
X4.5213Y-5.5213
X4.5213Y-5.6213
X4.5213Y-5.7213
X4.5213Y-5.8213
X4.6213Y-4.0213
X4.6213Y-4.1213
X4.6213Y-4.2213
X4.6213Y-4.3213
X4.6213Y-4.4213
X4.6213Y-4.5213
X4.6213Y-4.6213
X4.6213Y-4.7213
X4.6213Y-4.8213
X4.6213Y-4.9213
X4.6213Y-5.0213
X4.6213Y-5.1213
X4.6213Y-5.2213
X4.6213Y-5.3213
X4.6213Y-5.4213
X4.6213Y-5.5213
X4.6213Y-5.6213
X4.6213Y-5.7213
X4.6213Y-5.8213
X4.7213Y-4.0213
X4.7213Y-4.1213
X4.7213Y-4.2213
X4.7213Y-4.3213
X4.7213Y-4.4213
X4.7213Y-4.5213
X4.7213Y-4.6213
X4.7213Y-4.7213
X4.7213Y-4.8213
X4.7213Y-4.9213
X4.7213Y-5.0213
X4.7213Y-5.1213
X4.7213Y-5.2213
X4.7213Y-5.3213
X4.7213Y-5.4213
X4.7213Y-5.5213
X4.7213Y-5.6213
X4.7213Y-5.7213
X4.7213Y-5.8213
X4.8213Y-4.0213
X4.8213Y-4.1213
X4.8213Y-4.2213
X4.8213Y-4.3213
X4.8213Y-4.4213
X4.8213Y-4.5213
X4.8213Y-4.6213
X4.8213Y-4.7213
X4.8213Y-4.8213
X4.8213Y-4.9213
X4.8213Y-5.0213
X4.8213Y-5.1213
X4.8213Y-5.2213
X4.8213Y-5.3213
X4.8213Y-5.4213
X4.8213Y-5.5213
X4.8213Y-5.6213
X4.8213Y-5.7213
X4.8213Y-5.8213
X4.9213Y-4.0213
X4.9213Y-4.1213
X4.9213Y-4.2213
X4.9213Y-4.3213
X4.9213Y-4.4213
X4.9213Y-4.5213
X4.9213Y-4.6213
X4.9213Y-4.7213
X4.9213Y-4.8213
X4.9213Y-4.9213
X4.9213Y-5.0213
X4.9213Y-5.1213
X4.9213Y-5.2213
X4.9213Y-5.3213
X4.9213Y-5.4213
X4.9213Y-5.5213
X4.9213Y-5.6213
X4.9213Y-5.7213
X4.9213Y-5.8213
X5.0213Y-4.0213
X5.0213Y-4.1213
X5.0213Y-4.2213
X5.0213Y-4.3213
X5.0213Y-4.4213
X5.0213Y-4.5213
X5.0213Y-4.6213
X5.0213Y-4.7213
X5.0213Y-4.8213
X5.0213Y-4.9213
X5.0213Y-5.0213
X5.0213Y-5.1213
X5.0213Y-5.2213
X5.0213Y-5.3213
X5.0213Y-5.4213
X5.0213Y-5.5213
X5.0213Y-5.6213
X5.0213Y-5.7213
X5.0213Y-5.8213
X5.1213Y-4.0213
X5.1213Y-4.1213
X5.1213Y-4.2213
X5.1213Y-4.3213
X5.1213Y-4.4213
X5.1213Y-4.5213
X5.1213Y-4.6213
X5.1213Y-4.7213
X5.1213Y-4.8213
X5.1213Y-4.9213
X5.1213Y-5.0213
X5.1213Y-5.1213
X5.1213Y-5.2213
X5.1213Y-5.3213
X5.1213Y-5.4213
X5.1213Y-5.5213
X5.1213Y-5.6213
X5.1213Y-5.7213
X5.1213Y-5.8213
X5.2213Y-4.0213
X5.2213Y-4.1213
X5.2213Y-4.2213
X5.2213Y-4.3213
X5.2213Y-4.4213
X5.2213Y-4.5213
X5.2213Y-4.6213
X5.2213Y-4.7213
X5.2213Y-4.8213
X5.2213Y-4.9213
X5.2213Y-5.0213
X5.2213Y-5.1213
X5.2213Y-5.2213
X5.2213Y-5.3213
X5.2213Y-5.4213
X5.2213Y-5.5213
X5.2213Y-5.6213
X5.2213Y-5.7213
X5.2213Y-5.8213
X5.3213Y-4.0213
X5.3213Y-4.1213
X5.3213Y-4.2213
X5.3213Y-4.3213
X5.3213Y-4.4213
X5.3213Y-4.5213
X5.3213Y-4.6213
X5.3213Y-4.7213
X5.3213Y-4.8213
X5.3213Y-4.9213
X5.3213Y-5.0213
X5.3213Y-5.1213
X5.3213Y-5.2213
X5.3213Y-5.3213
X5.3213Y-5.4213
X5.3213Y-5.5213
X5.3213Y-5.6213
X5.3213Y-5.7213
X5.3213Y-5.8213
X5.4213Y-4.1213
X5.4213Y-5.7213
X5.4213Y-5.8213
X5.5213Y-4.1213
X5.5213Y-5.7213
X5.5213Y-5.8213
M30
