%TF.GenerationSoftware,KiCad,Pcbnew,8.0.9-1.fc41*%
%TF.CreationDate,2025-08-14T11:22:59-07:00*%
%TF.ProjectId,adapter,61646170-7465-4722-9e6b-696361645f70,1.0*%
%TF.SameCoordinates,Original*%
%TF.FileFunction,Soldermask,Bot*%
%TF.FilePolarity,Negative*%
%FSLAX46Y46*%
G04 Gerber Fmt 4.6, Leading zero omitted, Abs format (unit mm)*
G04 Created by KiCad (PCBNEW 8.0.9-1.fc41) date 2025-08-14 11:22:59*
%MOMM*%
%LPD*%
G01*
G04 APERTURE LIST*
%ADD10C,2.000000*%
%ADD11C,1.524000*%
%ADD12C,3.100000*%
%ADD13C,1.100000*%
%ADD14C,1.000000*%
%ADD15R,2.600000X1.700000*%
G04 APERTURE END LIST*
D10*
%TO.C,REF\u002A\u002A*%
X107000000Y-103000000D03*
%TD*%
D11*
%TO.C,REF\u002A\u002A*%
X109760000Y-102140000D03*
X112300000Y-102140000D03*
X114840000Y-102140000D03*
X117380000Y-102140000D03*
X119920000Y-102140000D03*
X122460000Y-102140000D03*
X125000000Y-102140000D03*
X127540000Y-102140000D03*
X130080000Y-102140000D03*
X132620000Y-102140000D03*
X135160000Y-102140000D03*
X109760000Y-104680000D03*
X112300000Y-104680000D03*
X114840000Y-104680000D03*
X117380000Y-104680000D03*
X119920000Y-104680000D03*
X122460000Y-104680000D03*
X125000000Y-104680000D03*
X127540000Y-104680000D03*
X130080000Y-104680000D03*
X132620000Y-104680000D03*
X135160000Y-104680000D03*
X137700000Y-104680000D03*
X140240000Y-104680000D03*
X102140000Y-107220000D03*
X104680000Y-107220000D03*
X107220000Y-107220000D03*
X109760000Y-107220000D03*
X112300000Y-107220000D03*
X114840000Y-107220000D03*
X117380000Y-107220000D03*
X119920000Y-107220000D03*
X122460000Y-107220000D03*
X125000000Y-107220000D03*
X127540000Y-107220000D03*
X130080000Y-107220000D03*
X132620000Y-107220000D03*
X135160000Y-107220000D03*
X102140000Y-109760000D03*
X104680000Y-109760000D03*
X107220000Y-109760000D03*
X109760000Y-109760000D03*
X112300000Y-109760000D03*
X114840000Y-109760000D03*
X117380000Y-109760000D03*
X119920000Y-109760000D03*
X122460000Y-109760000D03*
X125000000Y-109760000D03*
X127540000Y-109760000D03*
X130080000Y-109760000D03*
X132620000Y-109760000D03*
X135160000Y-109760000D03*
X102140000Y-112300000D03*
X104680000Y-112300000D03*
X107220000Y-112300000D03*
X109760000Y-112300000D03*
X112300000Y-112300000D03*
X114840000Y-112300000D03*
X117380000Y-112300000D03*
X119920000Y-112300000D03*
X122460000Y-112300000D03*
X125000000Y-112300000D03*
X127540000Y-112300000D03*
X130080000Y-112300000D03*
X132620000Y-112300000D03*
X135160000Y-112300000D03*
X102140000Y-114840000D03*
X104680000Y-114840000D03*
X107220000Y-114840000D03*
X109760000Y-114840000D03*
X112300000Y-114840000D03*
X114840000Y-114840000D03*
X117380000Y-114840000D03*
X119920000Y-114840000D03*
X122460000Y-114840000D03*
X125000000Y-114840000D03*
X127540000Y-114840000D03*
X130080000Y-114840000D03*
X132620000Y-114840000D03*
X135160000Y-114840000D03*
X102140000Y-117380000D03*
X104680000Y-117380000D03*
X107220000Y-117380000D03*
X109760000Y-117380000D03*
X112300000Y-117380000D03*
X114840000Y-117380000D03*
X117380000Y-117380000D03*
X119920000Y-117380000D03*
X122460000Y-117380000D03*
X125000000Y-117380000D03*
X127540000Y-117380000D03*
X130080000Y-117380000D03*
X132620000Y-117380000D03*
X135160000Y-117380000D03*
X102140000Y-119920000D03*
X104680000Y-119920000D03*
X107220000Y-119920000D03*
X109760000Y-119920000D03*
X112300000Y-119920000D03*
X114840000Y-119920000D03*
X117380000Y-119920000D03*
X119920000Y-119920000D03*
X122460000Y-119920000D03*
X125000000Y-119920000D03*
X127540000Y-119920000D03*
X130080000Y-119920000D03*
X132620000Y-119920000D03*
X135160000Y-119920000D03*
X102140000Y-122460000D03*
X104680000Y-122460000D03*
X107220000Y-122460000D03*
X109760000Y-122460000D03*
X112300000Y-122460000D03*
X114840000Y-122460000D03*
X117380000Y-122460000D03*
X119920000Y-122460000D03*
X122460000Y-122460000D03*
X125000000Y-122460000D03*
X127540000Y-122460000D03*
X130080000Y-122460000D03*
X132620000Y-122460000D03*
X135160000Y-122460000D03*
X102140000Y-125000000D03*
X104680000Y-125000000D03*
X107220000Y-125000000D03*
X109760000Y-125000000D03*
X112300000Y-125000000D03*
X114840000Y-125000000D03*
X117380000Y-125000000D03*
X119920000Y-125000000D03*
X122460000Y-125000000D03*
X125000000Y-125000000D03*
X127540000Y-125000000D03*
X130080000Y-125000000D03*
X132620000Y-125000000D03*
X135160000Y-125000000D03*
X102140000Y-127540000D03*
X104680000Y-127540000D03*
X107220000Y-127540000D03*
X109760000Y-127540000D03*
X112300000Y-127540000D03*
X114840000Y-127540000D03*
X117380000Y-127540000D03*
X119920000Y-127540000D03*
X122460000Y-127540000D03*
X125000000Y-127540000D03*
X127540000Y-127540000D03*
X130080000Y-127540000D03*
X132620000Y-127540000D03*
X135160000Y-127540000D03*
X102140000Y-130080000D03*
X104680000Y-130080000D03*
X107220000Y-130080000D03*
X109760000Y-130080000D03*
X112300000Y-130080000D03*
X114840000Y-130080000D03*
X117380000Y-130080000D03*
X119920000Y-130080000D03*
X122460000Y-130080000D03*
X125000000Y-130080000D03*
X127540000Y-130080000D03*
X130080000Y-130080000D03*
X132620000Y-130080000D03*
X135160000Y-130080000D03*
X102140000Y-132620000D03*
X104680000Y-132620000D03*
X107220000Y-132620000D03*
X109760000Y-132620000D03*
X112300000Y-132620000D03*
X114840000Y-132620000D03*
X117380000Y-132620000D03*
X119920000Y-132620000D03*
X122460000Y-132620000D03*
X125000000Y-132620000D03*
X127540000Y-132620000D03*
X130080000Y-132620000D03*
X132620000Y-132620000D03*
X135160000Y-132620000D03*
X102140000Y-135160000D03*
X104680000Y-135160000D03*
X107220000Y-135160000D03*
X109760000Y-135160000D03*
X112300000Y-135160000D03*
X114840000Y-135160000D03*
X117380000Y-135160000D03*
X119920000Y-135160000D03*
X122460000Y-135160000D03*
X125000000Y-135160000D03*
X127540000Y-135160000D03*
X130080000Y-135160000D03*
X132620000Y-135160000D03*
X135160000Y-135160000D03*
X102140000Y-137700000D03*
X104680000Y-137700000D03*
X107220000Y-137700000D03*
X109760000Y-137700000D03*
X112300000Y-137700000D03*
X114840000Y-137700000D03*
X117380000Y-137700000D03*
X119920000Y-137700000D03*
X122460000Y-137700000D03*
X125000000Y-137700000D03*
X127540000Y-137700000D03*
X130080000Y-137700000D03*
X132620000Y-137700000D03*
X135160000Y-137700000D03*
X102140000Y-140240000D03*
X104680000Y-140240000D03*
X107220000Y-140240000D03*
X109760000Y-140240000D03*
X112300000Y-140240000D03*
X114840000Y-140240000D03*
X117380000Y-140240000D03*
X119920000Y-140240000D03*
X122460000Y-140240000D03*
X125000000Y-140240000D03*
X127540000Y-140240000D03*
X130080000Y-140240000D03*
X132620000Y-140240000D03*
X135160000Y-140240000D03*
X102140000Y-142780000D03*
X104680000Y-142780000D03*
X107220000Y-142780000D03*
X109760000Y-142780000D03*
X112300000Y-142780000D03*
X114840000Y-142780000D03*
X117380000Y-142780000D03*
X119920000Y-142780000D03*
X122460000Y-142780000D03*
X125000000Y-142780000D03*
X127540000Y-142780000D03*
X130080000Y-142780000D03*
X132620000Y-142780000D03*
X135160000Y-142780000D03*
X109760000Y-145320000D03*
X112300000Y-145320000D03*
X114840000Y-145320000D03*
X117380000Y-145320000D03*
X119920000Y-145320000D03*
X122460000Y-145320000D03*
X125000000Y-145320000D03*
X127540000Y-145320000D03*
X130080000Y-145320000D03*
X132620000Y-145320000D03*
X135160000Y-145320000D03*
X137700000Y-145320000D03*
X140240000Y-145320000D03*
X109760000Y-147860000D03*
X112300000Y-147860000D03*
X114840000Y-147860000D03*
X117380000Y-147860000D03*
X119920000Y-147860000D03*
X122460000Y-147860000D03*
X125000000Y-147860000D03*
X127540000Y-147860000D03*
X130080000Y-147860000D03*
X132620000Y-147860000D03*
X135160000Y-147860000D03*
X137700000Y-147860000D03*
X140240000Y-147860000D03*
%TD*%
D10*
%TO.C,REF\u002A\u002A*%
X107000000Y-147000000D03*
%TD*%
D12*
%TO.C,REF\u002A\u002A*%
X103000000Y-147000000D03*
%TD*%
D10*
%TO.C,REF\u002A\u002A*%
X143000000Y-103000000D03*
%TD*%
%TO.C,REF\u002A\u002A*%
X143000000Y-147000000D03*
%TD*%
D13*
%TO.C,J1*%
X144050000Y-108490000D03*
D14*
X144050000Y-111030000D03*
X144050000Y-138970000D03*
D13*
X144050000Y-141510000D03*
%TD*%
D12*
%TO.C,REF\u002A\u002A*%
X147000000Y-147000000D03*
%TD*%
%TO.C,REF\u002A\u002A*%
X103000000Y-103000000D03*
%TD*%
%TO.C,REF\u002A\u002A*%
X147000000Y-103000000D03*
%TD*%
D13*
%TO.C,J2*%
X144050000Y-108490000D03*
D14*
X144050000Y-111030000D03*
X144050000Y-138970000D03*
D13*
X144050000Y-141510000D03*
D15*
X146350000Y-107220000D03*
X146350000Y-109760000D03*
X146350000Y-112300000D03*
X146350000Y-114840000D03*
X146350000Y-117380000D03*
X146350000Y-119920000D03*
X146350000Y-122460000D03*
X146350000Y-125000000D03*
X146350000Y-127540000D03*
X146350000Y-130080000D03*
X146350000Y-132620000D03*
X146350000Y-135160000D03*
X146350000Y-137700000D03*
X146350000Y-140240000D03*
X146350000Y-142780000D03*
X141750000Y-107220000D03*
X141750000Y-109760000D03*
X141750000Y-112300000D03*
X141750000Y-114840000D03*
X141750000Y-117380000D03*
X141750000Y-119920000D03*
X141750000Y-122460000D03*
X141750000Y-125000000D03*
X141750000Y-127540000D03*
X141750000Y-130080000D03*
X141750000Y-132620000D03*
X141750000Y-135160000D03*
X141750000Y-137700000D03*
X141750000Y-140240000D03*
X141750000Y-142780000D03*
%TD*%
M02*
