%TF.GenerationSoftware,KiCad,Pcbnew,8.0.9-1.fc41*%
%TF.CreationDate,2025-08-14T11:22:58-07:00*%
%TF.ProjectId,adapter,61646170-7465-4722-9e6b-696361645f70,1.0*%
%TF.SameCoordinates,Original*%
%TF.FileFunction,Legend,Bot*%
%TF.FilePolarity,Positive*%
%FSLAX46Y46*%
G04 Gerber Fmt 4.6, Leading zero omitted, Abs format (unit mm)*
G04 Created by KiCad (PCBNEW 8.0.9-1.fc41) date 2025-08-14 11:22:58*
%MOMM*%
%LPD*%
G01*
G04 APERTURE LIST*
%ADD10C,0.100000*%
%ADD11C,0.200000*%
G04 APERTURE END LIST*
D10*
X139605000Y-110217419D02*
X139176429Y-109455514D01*
X139176429Y-109455514D02*
X140033572Y-109455514D01*
X140033572Y-109455514D02*
X139605000Y-110217419D01*
X139605000Y-106915514D02*
X140033572Y-107677419D01*
X140033572Y-107677419D02*
X139176429Y-107677419D01*
X139176429Y-107677419D02*
X139605000Y-106915514D01*
X148399762Y-132315514D02*
X148590238Y-132315514D01*
X148590238Y-132315514D02*
X148780714Y-132410752D01*
X148780714Y-132410752D02*
X148875953Y-132601228D01*
X148875953Y-132601228D02*
X148875953Y-132791704D01*
X148875953Y-132791704D02*
X148780714Y-132982180D01*
X148780714Y-132982180D02*
X148590238Y-133077419D01*
X148590238Y-133077419D02*
X148399762Y-133077419D01*
X148399762Y-133077419D02*
X148209286Y-132982180D01*
X148209286Y-132982180D02*
X148114048Y-132791704D01*
X148114048Y-132791704D02*
X148114048Y-132601228D01*
X148114048Y-132601228D02*
X148209286Y-132410752D01*
X148209286Y-132410752D02*
X148399762Y-132315514D01*
X148161667Y-119805990D02*
X148161667Y-120186942D01*
X148209286Y-120234561D02*
X148399762Y-120377419D01*
X148209286Y-119758371D02*
X148399762Y-119615514D01*
X148209286Y-119710752D02*
X148209286Y-120282180D01*
X148256905Y-120282180D02*
X148256905Y-119710752D01*
X148304524Y-119663133D02*
X148304524Y-120329800D01*
X148352143Y-120329800D02*
X148352143Y-119663133D01*
X148399762Y-119615514D02*
X148399762Y-120377419D01*
X148447381Y-120377419D02*
X148447381Y-119615514D01*
X148495000Y-119615514D02*
X148495000Y-120377419D01*
X148542619Y-120377419D02*
X148542619Y-119615514D01*
X148590238Y-120377419D02*
X148780714Y-120234561D01*
X148590238Y-119615514D02*
X148590238Y-120377419D01*
X148590238Y-119615514D02*
X148780714Y-119758371D01*
X148637857Y-120329800D02*
X148637857Y-119663133D01*
X148685476Y-119663133D02*
X148685476Y-120329800D01*
X148733095Y-120282180D02*
X148733095Y-119710752D01*
X148780714Y-119710752D02*
X148780714Y-120282180D01*
X148828333Y-120186942D02*
X148828333Y-119805990D01*
X148399762Y-119615514D02*
X148590238Y-119615514D01*
X148590238Y-119615514D02*
X148780714Y-119710752D01*
X148780714Y-119710752D02*
X148875953Y-119901228D01*
X148875953Y-119901228D02*
X148875953Y-120091704D01*
X148875953Y-120091704D02*
X148780714Y-120282180D01*
X148780714Y-120282180D02*
X148590238Y-120377419D01*
X148590238Y-120377419D02*
X148399762Y-120377419D01*
X148399762Y-120377419D02*
X148209286Y-120282180D01*
X148209286Y-120282180D02*
X148114048Y-120091704D01*
X148114048Y-120091704D02*
X148114048Y-119901228D01*
X148114048Y-119901228D02*
X148209286Y-119710752D01*
X148209286Y-119710752D02*
X148399762Y-119615514D01*
X148875953Y-117123133D02*
X148875953Y-117075514D01*
X148828333Y-117218371D02*
X148828333Y-117075514D01*
X148780714Y-117313609D02*
X148780714Y-117075514D01*
X148733095Y-117408847D02*
X148733095Y-117075514D01*
X148685476Y-117456466D02*
X148685476Y-117075514D01*
X148637857Y-117551704D02*
X148637857Y-117075514D01*
X148590238Y-117646942D02*
X148590238Y-117075514D01*
X148542619Y-117742180D02*
X148542619Y-117075514D01*
X148495000Y-117837419D02*
X148495000Y-117075514D01*
X148447381Y-117742180D02*
X148447381Y-117075514D01*
X148399762Y-117646942D02*
X148399762Y-117075514D01*
X148352143Y-117551704D02*
X148352143Y-117075514D01*
X148304524Y-117456466D02*
X148304524Y-117075514D01*
X148256905Y-117408847D02*
X148256905Y-117075514D01*
X148209286Y-117313609D02*
X148209286Y-117075514D01*
X148161667Y-117218371D02*
X148161667Y-117075514D01*
X148114048Y-117075514D02*
X148495000Y-117789800D01*
X148495000Y-117789800D02*
X148875953Y-117075514D01*
X148114048Y-117123133D02*
X148114048Y-117075514D01*
X148495000Y-117837419D02*
X148066429Y-117075514D01*
X148066429Y-117075514D02*
X148923572Y-117075514D01*
X148923572Y-117075514D02*
X148495000Y-117837419D01*
D11*
X137336900Y-143064284D02*
X137294042Y-143064284D01*
X137422614Y-143021427D02*
X137294042Y-143021427D01*
X137508328Y-142978570D02*
X137294042Y-142978570D01*
X137594042Y-142935712D02*
X137294042Y-142935712D01*
X137636900Y-142892855D02*
X137294042Y-142892855D01*
X137722614Y-142849998D02*
X137294042Y-142849998D01*
X137808328Y-142807141D02*
X137294042Y-142807141D01*
X137894042Y-142764284D02*
X137294042Y-142764284D01*
X137979757Y-142721427D02*
X137294042Y-142721427D01*
X137894042Y-142678570D02*
X137294042Y-142678570D01*
X137808328Y-142635712D02*
X137294042Y-142635712D01*
X137722614Y-142592855D02*
X137294042Y-142592855D01*
X137636900Y-142549998D02*
X137294042Y-142549998D01*
X137594042Y-142507141D02*
X137294042Y-142507141D01*
X137508328Y-142464284D02*
X137294042Y-142464284D01*
X137422614Y-142421427D02*
X137294042Y-142421427D01*
X137294042Y-142378570D02*
X137936900Y-142721427D01*
X137936900Y-142721427D02*
X137294042Y-143064284D01*
X137336900Y-142378570D02*
X137294042Y-142378570D01*
X137979757Y-142721427D02*
X137294042Y-142335712D01*
X137294042Y-142335712D02*
X137294042Y-143107141D01*
X137294042Y-143107141D02*
X137979757Y-142721427D01*
X138151185Y-141478569D02*
X138194042Y-141564284D01*
X138194042Y-141564284D02*
X138194042Y-141692855D01*
X138194042Y-141692855D02*
X138151185Y-141821426D01*
X138151185Y-141821426D02*
X138065471Y-141907141D01*
X138065471Y-141907141D02*
X137979757Y-141949998D01*
X137979757Y-141949998D02*
X137808328Y-141992855D01*
X137808328Y-141992855D02*
X137679757Y-141992855D01*
X137679757Y-141992855D02*
X137508328Y-141949998D01*
X137508328Y-141949998D02*
X137422614Y-141907141D01*
X137422614Y-141907141D02*
X137336900Y-141821426D01*
X137336900Y-141821426D02*
X137294042Y-141692855D01*
X137294042Y-141692855D02*
X137294042Y-141607141D01*
X137294042Y-141607141D02*
X137336900Y-141478569D01*
X137336900Y-141478569D02*
X137379757Y-141435712D01*
X137379757Y-141435712D02*
X137679757Y-141435712D01*
X137679757Y-141435712D02*
X137679757Y-141607141D01*
X137294042Y-140578569D02*
X137294042Y-141092855D01*
X137294042Y-140835712D02*
X138194042Y-140835712D01*
X138194042Y-140835712D02*
X138065471Y-140921426D01*
X138065471Y-140921426D02*
X137979757Y-141007141D01*
X137979757Y-141007141D02*
X137936900Y-141092855D01*
X138194042Y-140021426D02*
X138194042Y-139935712D01*
X138194042Y-139935712D02*
X138151185Y-139849998D01*
X138151185Y-139849998D02*
X138108328Y-139807141D01*
X138108328Y-139807141D02*
X138022614Y-139764283D01*
X138022614Y-139764283D02*
X137851185Y-139721426D01*
X137851185Y-139721426D02*
X137636900Y-139721426D01*
X137636900Y-139721426D02*
X137465471Y-139764283D01*
X137465471Y-139764283D02*
X137379757Y-139807141D01*
X137379757Y-139807141D02*
X137336900Y-139849998D01*
X137336900Y-139849998D02*
X137294042Y-139935712D01*
X137294042Y-139935712D02*
X137294042Y-140021426D01*
X137294042Y-140021426D02*
X137336900Y-140107141D01*
X137336900Y-140107141D02*
X137379757Y-140149998D01*
X137379757Y-140149998D02*
X137465471Y-140192855D01*
X137465471Y-140192855D02*
X137636900Y-140235712D01*
X137636900Y-140235712D02*
X137851185Y-140235712D01*
X137851185Y-140235712D02*
X138022614Y-140192855D01*
X138022614Y-140192855D02*
X138108328Y-140149998D01*
X138108328Y-140149998D02*
X138151185Y-140107141D01*
X138151185Y-140107141D02*
X138194042Y-140021426D01*
X137979757Y-138992855D02*
X137294042Y-138607140D01*
X137294042Y-138607140D02*
X137294042Y-139378569D01*
X137294042Y-139378569D02*
X137979757Y-138992855D01*
X137336900Y-138264283D02*
X137294042Y-138135712D01*
X137294042Y-138135712D02*
X137294042Y-137921426D01*
X137294042Y-137921426D02*
X137336900Y-137835712D01*
X137336900Y-137835712D02*
X137379757Y-137792854D01*
X137379757Y-137792854D02*
X137465471Y-137749997D01*
X137465471Y-137749997D02*
X137551185Y-137749997D01*
X137551185Y-137749997D02*
X137636900Y-137792854D01*
X137636900Y-137792854D02*
X137679757Y-137835712D01*
X137679757Y-137835712D02*
X137722614Y-137921426D01*
X137722614Y-137921426D02*
X137765471Y-138092854D01*
X137765471Y-138092854D02*
X137808328Y-138178569D01*
X137808328Y-138178569D02*
X137851185Y-138221426D01*
X137851185Y-138221426D02*
X137936900Y-138264283D01*
X137936900Y-138264283D02*
X138022614Y-138264283D01*
X138022614Y-138264283D02*
X138108328Y-138221426D01*
X138108328Y-138221426D02*
X138151185Y-138178569D01*
X138151185Y-138178569D02*
X138194042Y-138092854D01*
X138194042Y-138092854D02*
X138194042Y-137878569D01*
X138194042Y-137878569D02*
X138151185Y-137749997D01*
X137294042Y-137364283D02*
X138194042Y-137364283D01*
X138194042Y-137364283D02*
X138194042Y-137021426D01*
X138194042Y-137021426D02*
X138151185Y-136935711D01*
X138151185Y-136935711D02*
X138108328Y-136892854D01*
X138108328Y-136892854D02*
X138022614Y-136849997D01*
X138022614Y-136849997D02*
X137894042Y-136849997D01*
X137894042Y-136849997D02*
X137808328Y-136892854D01*
X137808328Y-136892854D02*
X137765471Y-136935711D01*
X137765471Y-136935711D02*
X137722614Y-137021426D01*
X137722614Y-137021426D02*
X137722614Y-137364283D01*
X137294042Y-136464283D02*
X138194042Y-136464283D01*
X137208328Y-136249998D02*
X137208328Y-135564283D01*
X137294042Y-135349998D02*
X138194042Y-135349998D01*
X138194042Y-135349998D02*
X137551185Y-135049998D01*
X137551185Y-135049998D02*
X138194042Y-134749998D01*
X138194042Y-134749998D02*
X137294042Y-134749998D01*
X138194042Y-134149998D02*
X138194042Y-133978570D01*
X138194042Y-133978570D02*
X138151185Y-133892855D01*
X138151185Y-133892855D02*
X138065471Y-133807141D01*
X138065471Y-133807141D02*
X137894042Y-133764284D01*
X137894042Y-133764284D02*
X137594042Y-133764284D01*
X137594042Y-133764284D02*
X137422614Y-133807141D01*
X137422614Y-133807141D02*
X137336900Y-133892855D01*
X137336900Y-133892855D02*
X137294042Y-133978570D01*
X137294042Y-133978570D02*
X137294042Y-134149998D01*
X137294042Y-134149998D02*
X137336900Y-134235713D01*
X137336900Y-134235713D02*
X137422614Y-134321427D01*
X137422614Y-134321427D02*
X137594042Y-134364284D01*
X137594042Y-134364284D02*
X137894042Y-134364284D01*
X137894042Y-134364284D02*
X138065471Y-134321427D01*
X138065471Y-134321427D02*
X138151185Y-134235713D01*
X138151185Y-134235713D02*
X138194042Y-134149998D01*
X137336900Y-133421427D02*
X137294042Y-133292856D01*
X137294042Y-133292856D02*
X137294042Y-133078570D01*
X137294042Y-133078570D02*
X137336900Y-132992856D01*
X137336900Y-132992856D02*
X137379757Y-132949998D01*
X137379757Y-132949998D02*
X137465471Y-132907141D01*
X137465471Y-132907141D02*
X137551185Y-132907141D01*
X137551185Y-132907141D02*
X137636900Y-132949998D01*
X137636900Y-132949998D02*
X137679757Y-132992856D01*
X137679757Y-132992856D02*
X137722614Y-133078570D01*
X137722614Y-133078570D02*
X137765471Y-133249998D01*
X137765471Y-133249998D02*
X137808328Y-133335713D01*
X137808328Y-133335713D02*
X137851185Y-133378570D01*
X137851185Y-133378570D02*
X137936900Y-133421427D01*
X137936900Y-133421427D02*
X138022614Y-133421427D01*
X138022614Y-133421427D02*
X138108328Y-133378570D01*
X138108328Y-133378570D02*
X138151185Y-133335713D01*
X138151185Y-133335713D02*
X138194042Y-133249998D01*
X138194042Y-133249998D02*
X138194042Y-133035713D01*
X138194042Y-133035713D02*
X138151185Y-132907141D01*
X137294042Y-132521427D02*
X138194042Y-132521427D01*
X137336900Y-132092856D02*
X137294042Y-132092856D01*
X137422614Y-132049999D02*
X137294042Y-132049999D01*
X137508328Y-132007142D02*
X137294042Y-132007142D01*
X137594042Y-131964284D02*
X137294042Y-131964284D01*
X137636900Y-131921427D02*
X137294042Y-131921427D01*
X137722614Y-131878570D02*
X137294042Y-131878570D01*
X137808328Y-131835713D02*
X137294042Y-131835713D01*
X137894042Y-131792856D02*
X137294042Y-131792856D01*
X137979757Y-131749999D02*
X137294042Y-131749999D01*
X137894042Y-131707142D02*
X137294042Y-131707142D01*
X137808328Y-131664284D02*
X137294042Y-131664284D01*
X137722614Y-131621427D02*
X137294042Y-131621427D01*
X137636900Y-131578570D02*
X137294042Y-131578570D01*
X137594042Y-131535713D02*
X137294042Y-131535713D01*
X137508328Y-131492856D02*
X137294042Y-131492856D01*
X137422614Y-131449999D02*
X137294042Y-131449999D01*
X137294042Y-131407142D02*
X137936900Y-131749999D01*
X137936900Y-131749999D02*
X137294042Y-132092856D01*
X137336900Y-131407142D02*
X137294042Y-131407142D01*
X137979757Y-131749999D02*
X137294042Y-131364284D01*
X137294042Y-131364284D02*
X137294042Y-132135713D01*
X137294042Y-132135713D02*
X137979757Y-131749999D01*
X137936900Y-128921428D02*
X137979757Y-128921428D01*
X137851185Y-128964285D02*
X137979757Y-128964285D01*
X137765471Y-129007142D02*
X137979757Y-129007142D01*
X137679757Y-129049999D02*
X137979757Y-129049999D01*
X137636900Y-129092856D02*
X137979757Y-129092856D01*
X137551185Y-129135713D02*
X137979757Y-129135713D01*
X137465471Y-129178570D02*
X137979757Y-129178570D01*
X137379757Y-129221428D02*
X137979757Y-129221428D01*
X137294042Y-129264285D02*
X137979757Y-129264285D01*
X137379757Y-129307142D02*
X137979757Y-129307142D01*
X137465471Y-129349999D02*
X137979757Y-129349999D01*
X137551185Y-129392856D02*
X137979757Y-129392856D01*
X137636900Y-129435713D02*
X137979757Y-129435713D01*
X137679757Y-129478570D02*
X137979757Y-129478570D01*
X137765471Y-129521428D02*
X137979757Y-129521428D01*
X137851185Y-129564285D02*
X137979757Y-129564285D01*
X137979757Y-129607142D02*
X137336900Y-129264285D01*
X137336900Y-129264285D02*
X137979757Y-128921428D01*
X137936900Y-129607142D02*
X137979757Y-129607142D01*
X137294042Y-129264285D02*
X137979757Y-129649999D01*
X137979757Y-129649999D02*
X137979757Y-128878570D01*
X137979757Y-128878570D02*
X137294042Y-129264285D01*
X138151185Y-128021427D02*
X138194042Y-128107142D01*
X138194042Y-128107142D02*
X138194042Y-128235713D01*
X138194042Y-128235713D02*
X138151185Y-128364284D01*
X138151185Y-128364284D02*
X138065471Y-128449999D01*
X138065471Y-128449999D02*
X137979757Y-128492856D01*
X137979757Y-128492856D02*
X137808328Y-128535713D01*
X137808328Y-128535713D02*
X137679757Y-128535713D01*
X137679757Y-128535713D02*
X137508328Y-128492856D01*
X137508328Y-128492856D02*
X137422614Y-128449999D01*
X137422614Y-128449999D02*
X137336900Y-128364284D01*
X137336900Y-128364284D02*
X137294042Y-128235713D01*
X137294042Y-128235713D02*
X137294042Y-128149999D01*
X137294042Y-128149999D02*
X137336900Y-128021427D01*
X137336900Y-128021427D02*
X137379757Y-127978570D01*
X137379757Y-127978570D02*
X137679757Y-127978570D01*
X137679757Y-127978570D02*
X137679757Y-128149999D01*
X137808328Y-127464284D02*
X137851185Y-127549999D01*
X137851185Y-127549999D02*
X137894042Y-127592856D01*
X137894042Y-127592856D02*
X137979757Y-127635713D01*
X137979757Y-127635713D02*
X138022614Y-127635713D01*
X138022614Y-127635713D02*
X138108328Y-127592856D01*
X138108328Y-127592856D02*
X138151185Y-127549999D01*
X138151185Y-127549999D02*
X138194042Y-127464284D01*
X138194042Y-127464284D02*
X138194042Y-127292856D01*
X138194042Y-127292856D02*
X138151185Y-127207142D01*
X138151185Y-127207142D02*
X138108328Y-127164284D01*
X138108328Y-127164284D02*
X138022614Y-127121427D01*
X138022614Y-127121427D02*
X137979757Y-127121427D01*
X137979757Y-127121427D02*
X137894042Y-127164284D01*
X137894042Y-127164284D02*
X137851185Y-127207142D01*
X137851185Y-127207142D02*
X137808328Y-127292856D01*
X137808328Y-127292856D02*
X137808328Y-127464284D01*
X137808328Y-127464284D02*
X137765471Y-127549999D01*
X137765471Y-127549999D02*
X137722614Y-127592856D01*
X137722614Y-127592856D02*
X137636900Y-127635713D01*
X137636900Y-127635713D02*
X137465471Y-127635713D01*
X137465471Y-127635713D02*
X137379757Y-127592856D01*
X137379757Y-127592856D02*
X137336900Y-127549999D01*
X137336900Y-127549999D02*
X137294042Y-127464284D01*
X137294042Y-127464284D02*
X137294042Y-127292856D01*
X137294042Y-127292856D02*
X137336900Y-127207142D01*
X137336900Y-127207142D02*
X137379757Y-127164284D01*
X137379757Y-127164284D02*
X137465471Y-127121427D01*
X137465471Y-127121427D02*
X137636900Y-127121427D01*
X137636900Y-127121427D02*
X137722614Y-127164284D01*
X137722614Y-127164284D02*
X137765471Y-127207142D01*
X137765471Y-127207142D02*
X137808328Y-127292856D01*
X137294042Y-126392856D02*
X137979757Y-126778570D01*
X137979757Y-126778570D02*
X137979757Y-126007141D01*
X137979757Y-126007141D02*
X137294042Y-126392856D01*
X137336900Y-125664284D02*
X137294042Y-125535713D01*
X137294042Y-125535713D02*
X137294042Y-125321427D01*
X137294042Y-125321427D02*
X137336900Y-125235713D01*
X137336900Y-125235713D02*
X137379757Y-125192855D01*
X137379757Y-125192855D02*
X137465471Y-125149998D01*
X137465471Y-125149998D02*
X137551185Y-125149998D01*
X137551185Y-125149998D02*
X137636900Y-125192855D01*
X137636900Y-125192855D02*
X137679757Y-125235713D01*
X137679757Y-125235713D02*
X137722614Y-125321427D01*
X137722614Y-125321427D02*
X137765471Y-125492855D01*
X137765471Y-125492855D02*
X137808328Y-125578570D01*
X137808328Y-125578570D02*
X137851185Y-125621427D01*
X137851185Y-125621427D02*
X137936900Y-125664284D01*
X137936900Y-125664284D02*
X138022614Y-125664284D01*
X138022614Y-125664284D02*
X138108328Y-125621427D01*
X138108328Y-125621427D02*
X138151185Y-125578570D01*
X138151185Y-125578570D02*
X138194042Y-125492855D01*
X138194042Y-125492855D02*
X138194042Y-125278570D01*
X138194042Y-125278570D02*
X138151185Y-125149998D01*
X137294042Y-124764284D02*
X138194042Y-124764284D01*
X138194042Y-124764284D02*
X138194042Y-124421427D01*
X138194042Y-124421427D02*
X138151185Y-124335712D01*
X138151185Y-124335712D02*
X138108328Y-124292855D01*
X138108328Y-124292855D02*
X138022614Y-124249998D01*
X138022614Y-124249998D02*
X137894042Y-124249998D01*
X137894042Y-124249998D02*
X137808328Y-124292855D01*
X137808328Y-124292855D02*
X137765471Y-124335712D01*
X137765471Y-124335712D02*
X137722614Y-124421427D01*
X137722614Y-124421427D02*
X137722614Y-124764284D01*
X137294042Y-123864284D02*
X138194042Y-123864284D01*
X137208328Y-123649999D02*
X137208328Y-122964284D01*
X137294042Y-122749999D02*
X138194042Y-122749999D01*
X138194042Y-122749999D02*
X137551185Y-122449999D01*
X137551185Y-122449999D02*
X138194042Y-122149999D01*
X138194042Y-122149999D02*
X137294042Y-122149999D01*
X137294042Y-121721428D02*
X138194042Y-121721428D01*
X137336900Y-121335714D02*
X137294042Y-121207143D01*
X137294042Y-121207143D02*
X137294042Y-120992857D01*
X137294042Y-120992857D02*
X137336900Y-120907143D01*
X137336900Y-120907143D02*
X137379757Y-120864285D01*
X137379757Y-120864285D02*
X137465471Y-120821428D01*
X137465471Y-120821428D02*
X137551185Y-120821428D01*
X137551185Y-120821428D02*
X137636900Y-120864285D01*
X137636900Y-120864285D02*
X137679757Y-120907143D01*
X137679757Y-120907143D02*
X137722614Y-120992857D01*
X137722614Y-120992857D02*
X137765471Y-121164285D01*
X137765471Y-121164285D02*
X137808328Y-121250000D01*
X137808328Y-121250000D02*
X137851185Y-121292857D01*
X137851185Y-121292857D02*
X137936900Y-121335714D01*
X137936900Y-121335714D02*
X138022614Y-121335714D01*
X138022614Y-121335714D02*
X138108328Y-121292857D01*
X138108328Y-121292857D02*
X138151185Y-121250000D01*
X138151185Y-121250000D02*
X138194042Y-121164285D01*
X138194042Y-121164285D02*
X138194042Y-120950000D01*
X138194042Y-120950000D02*
X138151185Y-120821428D01*
X138194042Y-120264285D02*
X138194042Y-120092857D01*
X138194042Y-120092857D02*
X138151185Y-120007142D01*
X138151185Y-120007142D02*
X138065471Y-119921428D01*
X138065471Y-119921428D02*
X137894042Y-119878571D01*
X137894042Y-119878571D02*
X137594042Y-119878571D01*
X137594042Y-119878571D02*
X137422614Y-119921428D01*
X137422614Y-119921428D02*
X137336900Y-120007142D01*
X137336900Y-120007142D02*
X137294042Y-120092857D01*
X137294042Y-120092857D02*
X137294042Y-120264285D01*
X137294042Y-120264285D02*
X137336900Y-120350000D01*
X137336900Y-120350000D02*
X137422614Y-120435714D01*
X137422614Y-120435714D02*
X137594042Y-120478571D01*
X137594042Y-120478571D02*
X137894042Y-120478571D01*
X137894042Y-120478571D02*
X138065471Y-120435714D01*
X138065471Y-120435714D02*
X138151185Y-120350000D01*
X138151185Y-120350000D02*
X138194042Y-120264285D01*
X137936900Y-118807143D02*
X137979757Y-118807143D01*
X137851185Y-118850000D02*
X137979757Y-118850000D01*
X137765471Y-118892857D02*
X137979757Y-118892857D01*
X137679757Y-118935714D02*
X137979757Y-118935714D01*
X137636900Y-118978571D02*
X137979757Y-118978571D01*
X137551185Y-119021428D02*
X137979757Y-119021428D01*
X137465471Y-119064285D02*
X137979757Y-119064285D01*
X137379757Y-119107143D02*
X137979757Y-119107143D01*
X137294042Y-119150000D02*
X137979757Y-119150000D01*
X137379757Y-119192857D02*
X137979757Y-119192857D01*
X137465471Y-119235714D02*
X137979757Y-119235714D01*
X137551185Y-119278571D02*
X137979757Y-119278571D01*
X137636900Y-119321428D02*
X137979757Y-119321428D01*
X137679757Y-119364285D02*
X137979757Y-119364285D01*
X137765471Y-119407143D02*
X137979757Y-119407143D01*
X137851185Y-119450000D02*
X137979757Y-119450000D01*
X137979757Y-119492857D02*
X137336900Y-119150000D01*
X137336900Y-119150000D02*
X137979757Y-118807143D01*
X137936900Y-119492857D02*
X137979757Y-119492857D01*
X137294042Y-119150000D02*
X137979757Y-119535714D01*
X137979757Y-119535714D02*
X137979757Y-118764285D01*
X137979757Y-118764285D02*
X137294042Y-119150000D01*
X137808328Y-116964286D02*
X137465471Y-116964286D01*
X137422614Y-116921429D02*
X137294042Y-116750000D01*
X137851185Y-116921429D02*
X137979757Y-116750000D01*
X137894042Y-116921429D02*
X137379757Y-116921429D01*
X137379757Y-116878571D02*
X137894042Y-116878571D01*
X137936900Y-116835714D02*
X137336900Y-116835714D01*
X137336900Y-116792857D02*
X137936900Y-116792857D01*
X137979757Y-116750000D02*
X137294042Y-116750000D01*
X137294042Y-116707143D02*
X137979757Y-116707143D01*
X137979757Y-116664286D02*
X137294042Y-116664286D01*
X137294042Y-116621429D02*
X137979757Y-116621429D01*
X137294042Y-116578571D02*
X137422614Y-116407143D01*
X137979757Y-116578571D02*
X137294042Y-116578571D01*
X137979757Y-116578571D02*
X137851185Y-116407143D01*
X137336900Y-116535714D02*
X137936900Y-116535714D01*
X137936900Y-116492857D02*
X137336900Y-116492857D01*
X137379757Y-116450000D02*
X137894042Y-116450000D01*
X137894042Y-116407143D02*
X137379757Y-116407143D01*
X137465471Y-116364286D02*
X137808328Y-116364286D01*
X137979757Y-116750000D02*
X137979757Y-116578571D01*
X137979757Y-116578571D02*
X137894042Y-116407143D01*
X137894042Y-116407143D02*
X137722614Y-116321429D01*
X137722614Y-116321429D02*
X137551185Y-116321429D01*
X137551185Y-116321429D02*
X137379757Y-116407143D01*
X137379757Y-116407143D02*
X137294042Y-116578571D01*
X137294042Y-116578571D02*
X137294042Y-116750000D01*
X137294042Y-116750000D02*
X137379757Y-116921429D01*
X137379757Y-116921429D02*
X137551185Y-117007143D01*
X137551185Y-117007143D02*
X137722614Y-117007143D01*
X137722614Y-117007143D02*
X137894042Y-116921429D01*
X137894042Y-116921429D02*
X137979757Y-116750000D01*
X138151185Y-115421428D02*
X138194042Y-115507143D01*
X138194042Y-115507143D02*
X138194042Y-115635714D01*
X138194042Y-115635714D02*
X138151185Y-115764285D01*
X138151185Y-115764285D02*
X138065471Y-115850000D01*
X138065471Y-115850000D02*
X137979757Y-115892857D01*
X137979757Y-115892857D02*
X137808328Y-115935714D01*
X137808328Y-115935714D02*
X137679757Y-115935714D01*
X137679757Y-115935714D02*
X137508328Y-115892857D01*
X137508328Y-115892857D02*
X137422614Y-115850000D01*
X137422614Y-115850000D02*
X137336900Y-115764285D01*
X137336900Y-115764285D02*
X137294042Y-115635714D01*
X137294042Y-115635714D02*
X137294042Y-115550000D01*
X137294042Y-115550000D02*
X137336900Y-115421428D01*
X137336900Y-115421428D02*
X137379757Y-115378571D01*
X137379757Y-115378571D02*
X137679757Y-115378571D01*
X137679757Y-115378571D02*
X137679757Y-115550000D01*
X138194042Y-114607143D02*
X138194042Y-114778571D01*
X138194042Y-114778571D02*
X138151185Y-114864285D01*
X138151185Y-114864285D02*
X138108328Y-114907143D01*
X138108328Y-114907143D02*
X137979757Y-114992857D01*
X137979757Y-114992857D02*
X137808328Y-115035714D01*
X137808328Y-115035714D02*
X137465471Y-115035714D01*
X137465471Y-115035714D02*
X137379757Y-114992857D01*
X137379757Y-114992857D02*
X137336900Y-114950000D01*
X137336900Y-114950000D02*
X137294042Y-114864285D01*
X137294042Y-114864285D02*
X137294042Y-114692857D01*
X137294042Y-114692857D02*
X137336900Y-114607143D01*
X137336900Y-114607143D02*
X137379757Y-114564285D01*
X137379757Y-114564285D02*
X137465471Y-114521428D01*
X137465471Y-114521428D02*
X137679757Y-114521428D01*
X137679757Y-114521428D02*
X137765471Y-114564285D01*
X137765471Y-114564285D02*
X137808328Y-114607143D01*
X137808328Y-114607143D02*
X137851185Y-114692857D01*
X137851185Y-114692857D02*
X137851185Y-114864285D01*
X137851185Y-114864285D02*
X137808328Y-114950000D01*
X137808328Y-114950000D02*
X137765471Y-114992857D01*
X137765471Y-114992857D02*
X137679757Y-115035714D01*
X137979757Y-113878571D02*
X137979757Y-113707142D01*
X137979757Y-113707142D02*
X137894042Y-113535714D01*
X137894042Y-113535714D02*
X137722614Y-113450000D01*
X137722614Y-113450000D02*
X137551185Y-113450000D01*
X137551185Y-113450000D02*
X137379757Y-113535714D01*
X137379757Y-113535714D02*
X137294042Y-113707142D01*
X137294042Y-113707142D02*
X137294042Y-113878571D01*
X137294042Y-113878571D02*
X137379757Y-114050000D01*
X137379757Y-114050000D02*
X137551185Y-114135714D01*
X137551185Y-114135714D02*
X137722614Y-114135714D01*
X137722614Y-114135714D02*
X137894042Y-114050000D01*
X137894042Y-114050000D02*
X137979757Y-113878571D01*
X137336900Y-113064285D02*
X137294042Y-112935714D01*
X137294042Y-112935714D02*
X137294042Y-112721428D01*
X137294042Y-112721428D02*
X137336900Y-112635714D01*
X137336900Y-112635714D02*
X137379757Y-112592856D01*
X137379757Y-112592856D02*
X137465471Y-112549999D01*
X137465471Y-112549999D02*
X137551185Y-112549999D01*
X137551185Y-112549999D02*
X137636900Y-112592856D01*
X137636900Y-112592856D02*
X137679757Y-112635714D01*
X137679757Y-112635714D02*
X137722614Y-112721428D01*
X137722614Y-112721428D02*
X137765471Y-112892856D01*
X137765471Y-112892856D02*
X137808328Y-112978571D01*
X137808328Y-112978571D02*
X137851185Y-113021428D01*
X137851185Y-113021428D02*
X137936900Y-113064285D01*
X137936900Y-113064285D02*
X138022614Y-113064285D01*
X138022614Y-113064285D02*
X138108328Y-113021428D01*
X138108328Y-113021428D02*
X138151185Y-112978571D01*
X138151185Y-112978571D02*
X138194042Y-112892856D01*
X138194042Y-112892856D02*
X138194042Y-112678571D01*
X138194042Y-112678571D02*
X138151185Y-112549999D01*
X137294042Y-112164285D02*
X138194042Y-112164285D01*
X138194042Y-112164285D02*
X138194042Y-111821428D01*
X138194042Y-111821428D02*
X138151185Y-111735713D01*
X138151185Y-111735713D02*
X138108328Y-111692856D01*
X138108328Y-111692856D02*
X138022614Y-111649999D01*
X138022614Y-111649999D02*
X137894042Y-111649999D01*
X137894042Y-111649999D02*
X137808328Y-111692856D01*
X137808328Y-111692856D02*
X137765471Y-111735713D01*
X137765471Y-111735713D02*
X137722614Y-111821428D01*
X137722614Y-111821428D02*
X137722614Y-112164285D01*
X137294042Y-111264285D02*
X138194042Y-111264285D01*
X137208328Y-111050000D02*
X137208328Y-110364285D01*
X137379757Y-109635714D02*
X137336900Y-109678571D01*
X137336900Y-109678571D02*
X137294042Y-109807143D01*
X137294042Y-109807143D02*
X137294042Y-109892857D01*
X137294042Y-109892857D02*
X137336900Y-110021428D01*
X137336900Y-110021428D02*
X137422614Y-110107143D01*
X137422614Y-110107143D02*
X137508328Y-110150000D01*
X137508328Y-110150000D02*
X137679757Y-110192857D01*
X137679757Y-110192857D02*
X137808328Y-110192857D01*
X137808328Y-110192857D02*
X137979757Y-110150000D01*
X137979757Y-110150000D02*
X138065471Y-110107143D01*
X138065471Y-110107143D02*
X138151185Y-110021428D01*
X138151185Y-110021428D02*
X138194042Y-109892857D01*
X138194042Y-109892857D02*
X138194042Y-109807143D01*
X138194042Y-109807143D02*
X138151185Y-109678571D01*
X138151185Y-109678571D02*
X138108328Y-109635714D01*
X137294042Y-108821428D02*
X137294042Y-109250000D01*
X137294042Y-109250000D02*
X138194042Y-109250000D01*
X137294042Y-108521429D02*
X138194042Y-108521429D01*
X137294042Y-108007143D02*
X137808328Y-108392857D01*
X138194042Y-108007143D02*
X137679757Y-108521429D01*
X137808328Y-107578572D02*
X137465471Y-107578572D01*
X137422614Y-107535715D02*
X137294042Y-107364286D01*
X137851185Y-107535715D02*
X137979757Y-107364286D01*
X137894042Y-107535715D02*
X137379757Y-107535715D01*
X137379757Y-107492857D02*
X137894042Y-107492857D01*
X137936900Y-107450000D02*
X137336900Y-107450000D01*
X137336900Y-107407143D02*
X137936900Y-107407143D01*
X137979757Y-107364286D02*
X137294042Y-107364286D01*
X137294042Y-107321429D02*
X137979757Y-107321429D01*
X137979757Y-107278572D02*
X137294042Y-107278572D01*
X137294042Y-107235715D02*
X137979757Y-107235715D01*
X137294042Y-107192857D02*
X137422614Y-107021429D01*
X137979757Y-107192857D02*
X137294042Y-107192857D01*
X137979757Y-107192857D02*
X137851185Y-107021429D01*
X137336900Y-107150000D02*
X137936900Y-107150000D01*
X137936900Y-107107143D02*
X137336900Y-107107143D01*
X137379757Y-107064286D02*
X137894042Y-107064286D01*
X137894042Y-107021429D02*
X137379757Y-107021429D01*
X137465471Y-106978572D02*
X137808328Y-106978572D01*
X137979757Y-107364286D02*
X137979757Y-107192857D01*
X137979757Y-107192857D02*
X137894042Y-107021429D01*
X137894042Y-107021429D02*
X137722614Y-106935715D01*
X137722614Y-106935715D02*
X137551185Y-106935715D01*
X137551185Y-106935715D02*
X137379757Y-107021429D01*
X137379757Y-107021429D02*
X137294042Y-107192857D01*
X137294042Y-107192857D02*
X137294042Y-107364286D01*
X137294042Y-107364286D02*
X137379757Y-107535715D01*
X137379757Y-107535715D02*
X137551185Y-107621429D01*
X137551185Y-107621429D02*
X137722614Y-107621429D01*
X137722614Y-107621429D02*
X137894042Y-107535715D01*
X137894042Y-107535715D02*
X137979757Y-107364286D01*
D10*
X148114048Y-115249800D02*
X148114048Y-115297419D01*
X148161667Y-115154561D02*
X148161667Y-115297419D01*
X148209286Y-115059323D02*
X148209286Y-115297419D01*
X148256905Y-114964085D02*
X148256905Y-115297419D01*
X148304524Y-114916466D02*
X148304524Y-115297419D01*
X148352143Y-114821228D02*
X148352143Y-115297419D01*
X148399762Y-114725990D02*
X148399762Y-115297419D01*
X148447381Y-114630752D02*
X148447381Y-115297419D01*
X148495000Y-114535514D02*
X148495000Y-115297419D01*
X148542619Y-114630752D02*
X148542619Y-115297419D01*
X148590238Y-114725990D02*
X148590238Y-115297419D01*
X148637857Y-114821228D02*
X148637857Y-115297419D01*
X148685476Y-114916466D02*
X148685476Y-115297419D01*
X148733095Y-114964085D02*
X148733095Y-115297419D01*
X148780714Y-115059323D02*
X148780714Y-115297419D01*
X148828333Y-115154561D02*
X148828333Y-115297419D01*
X148875953Y-115297419D02*
X148495000Y-114583133D01*
X148495000Y-114583133D02*
X148114048Y-115297419D01*
X148875953Y-115249800D02*
X148875953Y-115297419D01*
X148495000Y-114535514D02*
X148923572Y-115297419D01*
X148923572Y-115297419D02*
X148066429Y-115297419D01*
X148066429Y-115297419D02*
X148495000Y-114535514D01*
M02*
