%TF.GenerationSoftware,KiCad,Pcbnew,9.0.4-1.fc42*%
%TF.CreationDate,2025-09-12T10:21:52-07:00*%
%TF.ProjectId,adapter_relay,61646170-7465-4725-9f72-656c61792e6b,1.0*%
%TF.SameCoordinates,Original*%
%TF.FileFunction,Copper,L2,Bot*%
%TF.FilePolarity,Positive*%
%FSLAX46Y46*%
G04 Gerber Fmt 4.6, Leading zero omitted, Abs format (unit mm)*
G04 Created by KiCad (PCBNEW 9.0.4-1.fc42) date 2025-09-12 10:21:52*
%MOMM*%
%LPD*%
G01*
G04 APERTURE LIST*
%TA.AperFunction,EtchedComponent*%
%ADD10C,0.000000*%
%TD*%
%TA.AperFunction,SMDPad,CuDef*%
%ADD11R,2.350000X1.550000*%
%TD*%
%TA.AperFunction,SMDPad,CuDef*%
%ADD12R,0.540000X0.940000*%
%TD*%
%TA.AperFunction,SMDPad,CuDef*%
%ADD13C,0.500000*%
%TD*%
%TA.AperFunction,SMDPad,CuDef*%
%ADD14R,1.400000X1.150000*%
%TD*%
%TA.AperFunction,SMDPad,CuDef*%
%ADD15R,2.600000X1.700000*%
%TD*%
%TA.AperFunction,SMDPad,CuDef*%
%ADD16R,0.650000X1.100000*%
%TD*%
%TA.AperFunction,SMDPad,CuDef*%
%ADD17R,1.150000X1.400000*%
%TD*%
%TA.AperFunction,SMDPad,CuDef*%
%ADD18R,2.940000X1.000000*%
%TD*%
%TA.AperFunction,ComponentPad*%
%ADD19C,1.500000*%
%TD*%
%TA.AperFunction,ComponentPad*%
%ADD20C,1.950000*%
%TD*%
%TA.AperFunction,SMDPad,CuDef*%
%ADD21R,1.300000X0.700000*%
%TD*%
%TA.AperFunction,ComponentPad*%
%ADD22R,1.700000X1.700000*%
%TD*%
%TA.AperFunction,ComponentPad*%
%ADD23C,1.700000*%
%TD*%
%TA.AperFunction,ViaPad*%
%ADD24C,0.600000*%
%TD*%
%TA.AperFunction,ViaPad*%
%ADD25C,0.700000*%
%TD*%
%TA.AperFunction,ViaPad*%
%ADD26C,1.000000*%
%TD*%
%TA.AperFunction,Conductor*%
%ADD27C,0.500000*%
%TD*%
%TA.AperFunction,Conductor*%
%ADD28C,0.200000*%
%TD*%
%TA.AperFunction,Conductor*%
%ADD29C,1.500000*%
%TD*%
G04 APERTURE END LIST*
D10*
%TA.AperFunction,EtchedComponent*%
%TO.C,NT2*%
G36*
X121210000Y-106500000D02*
G01*
X120710000Y-106500000D01*
X120710000Y-105500000D01*
X121210000Y-105500000D01*
X121210000Y-106500000D01*
G37*
%TD.AperFunction*%
%TD*%
D11*
%TO.P,D1,1,K*%
%TO.N,+5V*%
X122150000Y-114000000D03*
%TO.P,D1,2,A*%
%TO.N,/COIL-*%
X117850000Y-114000000D03*
%TD*%
D12*
%TO.P,C2,1,1*%
%TO.N,/COIL-*%
X119200000Y-118000000D03*
%TO.P,C2,2,2*%
%TO.N,+5V*%
X120800000Y-118000000D03*
%TD*%
D13*
%TO.P,NT2,1,1*%
%TO.N,/PULLDOWN*%
X120960000Y-105500000D03*
%TO.P,NT2,2,2*%
%TO.N,GND*%
X120960000Y-106500000D03*
%TD*%
D14*
%TO.P,R1,1,1*%
%TO.N,/G5\u00B7*%
X114000000Y-110175000D03*
%TO.P,R1,2,2*%
%TO.N,/BASE*%
X114000000Y-107825000D03*
%TD*%
D15*
%TO.P,J2,000,GND*%
%TO.N,GND*%
X146350000Y-107220000D03*
%TO.P,J2,001,GND*%
%TO.N,/GND1*%
X146350000Y-109760000D03*
%TO.P,J2,002,GND*%
%TO.N,/GND2*%
X146350000Y-112300000D03*
%TO.P,J2,003,G37\u00B7SPI_MOSI*%
%TO.N,/G10\u00B7SPI_MOSI*%
X146350000Y-114840000D03*
%TO.P,J2,004,G35\u00B7SPI_MISO*%
%TO.N,/G8\u00B7SPI_MISO*%
X146350000Y-117380000D03*
%TO.P,J2,005,G36\u00B7SPI_CLK*%
%TO.N,/G6\u00B7SPI_CLK*%
X146350000Y-119920000D03*
%TO.P,J2,006,G44/RXD0\u00B7*%
%TO.N,/G44{slash}RXD0\u00B7*%
X146350000Y-122460000D03*
%TO.P,J2,007,G18/PC_RX\u00B7*%
%TO.N,/G18{slash}PC_RX\u00B7*%
X146350000Y-125000000D03*
%TO.P,J2,008,G12/In_SDA\u00B7*%
%TO.N,/G12{slash}In_SDA\u00B7*%
X146350000Y-127540000D03*
%TO.P,J2,009,G2/PA_SDA\u00B7*%
%TO.N,/G2{slash}PA_SDA\u00B7*%
X146350000Y-130080000D03*
%TO.P,J2,010,G6\u00B7*%
%TO.N,unconnected-(J2-G6\u00B7-Pad010)*%
X146350000Y-132620000D03*
%TO.P,J2,011,G13/I2S_DOUT\u00B7RS232_TX/RS485_TX*%
%TO.N,/G13{slash}I2S_DOUT\u00B7RS232_TX{slash}RS485_TX*%
X146350000Y-135160000D03*
%TO.P,J2,012,HPWR*%
%TO.N,/HPWR0*%
X146350000Y-137700000D03*
%TO.P,J2,013,HPWR*%
%TO.N,/HPWR1*%
X146350000Y-140240000D03*
%TO.P,J2,014,HPWR*%
%TO.N,/HPWR2*%
X146350000Y-142780000D03*
%TO.P,J2,100,G10\u00B7*%
%TO.N,unconnected-(J2-G10\u00B7-Pad100)*%
X141750000Y-107220000D03*
%TO.P,J2,101,G8\u00B7*%
%TO.N,unconnected-(J2-G8\u00B7-Pad101)*%
X141750000Y-109760000D03*
%TO.P,J2,102,RST/EN\u00B7*%
%TO.N,/RST{slash}EN\u00B7*%
X141750000Y-112300000D03*
%TO.P,J2,103,G5\u00B7*%
%TO.N,unconnected-(J2-G5\u00B7-Pad103)*%
X141750000Y-114840000D03*
%TO.P,J2,104,G9\u00B7CS*%
%TO.N,/G9\u00B7CS*%
X141750000Y-117380000D03*
%TO.P,J2,105,3V3*%
%TO.N,/3V3*%
X141750000Y-119920000D03*
%TO.P,J2,106,G43/TXD0\u00B7*%
%TO.N,/G43{slash}TXD0\u00B7*%
X141750000Y-122460000D03*
%TO.P,J2,107,G17/PC_TX\u00B7*%
%TO.N,/G17{slash}PC_TX\u00B7*%
X141750000Y-125000000D03*
%TO.P,J2,108,G11/In_SCL\u00B7*%
%TO.N,/G11{slash}In_CL\u00B7*%
X141750000Y-127540000D03*
%TO.P,J2,109,G1/PA_SCL\u00B7RS232_RX/RS485_RX*%
%TO.N,/G1{slash}PA_SCL\u00B7RS232_RX{slash}RS485_RX*%
X141750000Y-130080000D03*
%TO.P,J2,110,G7\u00B7RST*%
%TO.N,/G7\u00B7RST*%
X141750000Y-132620000D03*
%TO.P,J2,111,G0/I2S_LRCK\u00B7*%
%TO.N,/G0{slash}I2S_LRCK\u00B7*%
X141750000Y-135160000D03*
%TO.P,J2,112,G14/I2S_DIN\u00B7INT*%
%TO.N,/G14{slash}I2S_DIN\u00B7INT*%
X141750000Y-137700000D03*
%TO.P,J2,113,5V*%
%TO.N,+5V*%
X141750000Y-140240000D03*
%TO.P,J2,114,BAT*%
%TO.N,/BAT*%
X141750000Y-142780000D03*
%TD*%
D16*
%TO.P,Q1,1,B*%
%TO.N,/BASE*%
X119040000Y-107950000D03*
%TO.P,Q1,2,E*%
%TO.N,GND*%
X120960000Y-107950000D03*
%TO.P,Q1,3,C*%
%TO.N,/COIL-*%
X120000000Y-110050000D03*
%TD*%
D17*
%TO.P,R2,1,1*%
%TO.N,/BASE*%
X118825000Y-104000000D03*
%TO.P,R2,2,2*%
%TO.N,/PULLDOWN*%
X121175000Y-104000000D03*
%TD*%
D18*
%TO.P,K1,1,1*%
%TO.N,+5V*%
X124780000Y-122920000D03*
%TO.P,K1,2,2*%
%TO.N,/NC0*%
X124780000Y-125460000D03*
%TO.P,K1,3,3*%
%TO.N,/COM0*%
X124780000Y-128000000D03*
%TO.P,K1,4,4*%
%TO.N,/NO0*%
X124780000Y-130540000D03*
%TO.P,K1,5,5*%
%TO.N,unconnected-(K1-Pad5)*%
X124780000Y-133080000D03*
%TO.P,K1,6,6*%
%TO.N,unconnected-(K1-Pad6)*%
X115220000Y-133080000D03*
%TO.P,K1,7,7*%
%TO.N,/NO1*%
X115220000Y-130540000D03*
%TO.P,K1,8,8*%
%TO.N,/COM1*%
X115220000Y-128000000D03*
%TO.P,K1,9,9*%
%TO.N,/NC1*%
X115220000Y-125460000D03*
%TO.P,K1,10,10*%
%TO.N,/COIL-*%
X115220000Y-122920000D03*
%TD*%
D19*
%TO.P,J3,1,1*%
%TO.N,/SW1*%
X117300000Y-142900000D03*
D20*
%TO.P,J3,2,2*%
%TO.N,/COM0*%
X110000000Y-142500000D03*
D19*
%TO.P,J3,3,3*%
%TO.N,unconnected-(J3-Pad3)*%
X114000000Y-142900000D03*
%TD*%
D21*
%TO.P,C1,1,1*%
%TO.N,+5V*%
X126000000Y-109950000D03*
%TO.P,C1,2,2*%
%TO.N,GND*%
X126000000Y-108050000D03*
%TD*%
D22*
%TO.P,J6,1,Pin_1*%
%TO.N,/NC1*%
X109000000Y-125460000D03*
D23*
%TO.P,J6,2,Pin_2*%
%TO.N,/SW1*%
X109000000Y-128000000D03*
%TO.P,J6,3,Pin_3*%
%TO.N,/NO1*%
X109000000Y-130540000D03*
%TD*%
D19*
%TO.P,J4,1,1*%
%TO.N,/COM1*%
X128300000Y-142900000D03*
D20*
%TO.P,J4,2,2*%
%TO.N,/SW0*%
X121000000Y-142500000D03*
D19*
%TO.P,J4,3,3*%
%TO.N,unconnected-(J4-Pad3)*%
X125000000Y-142900000D03*
%TD*%
D22*
%TO.P,J5,1,Pin_1*%
%TO.N,/NC0*%
X131000000Y-125460000D03*
D23*
%TO.P,J5,2,Pin_2*%
%TO.N,/SW0*%
X131000000Y-128000000D03*
%TO.P,J5,3,Pin_3*%
%TO.N,/NO0*%
X131000000Y-130540000D03*
%TD*%
D24*
%TO.N,/G5\u00B7*%
X114000000Y-114901000D03*
D25*
%TO.N,/G14{slash}I2S_DIN\u00B7INT*%
X141000000Y-137700000D03*
X142500000Y-137700000D03*
D24*
%TO.N,/G8\u00B7SPI_MISO*%
X139610000Y-114200000D03*
D25*
%TO.N,/RST{slash}EN\u00B7*%
X142500000Y-112300000D03*
X141000000Y-112300000D03*
%TO.N,/G2{slash}PA_SDA\u00B7*%
X147100000Y-130080000D03*
X145600000Y-130080000D03*
D24*
%TO.N,/G6\u00B7SPI_CLK*%
X144050000Y-120555000D03*
D25*
%TO.N,/G44{slash}RXD0\u00B7*%
X145600000Y-122460000D03*
X147100000Y-122460000D03*
%TO.N,/GND1*%
X147100000Y-109760000D03*
X145600000Y-109760000D03*
%TO.N,/3V3*%
X142500000Y-119920000D03*
X141000000Y-119920000D03*
%TO.N,/GND2*%
X145600000Y-112300000D03*
X147100000Y-112300000D03*
%TO.N,/G7\u00B7RST*%
X141000000Y-132620000D03*
X142500000Y-132620000D03*
%TO.N,/G43{slash}TXD0\u00B7*%
X142500000Y-122460000D03*
X141000000Y-122460000D03*
%TO.N,GND*%
X145600000Y-107220000D03*
X147100000Y-107220000D03*
%TO.N,/G18{slash}PC_RX\u00B7*%
X147100000Y-125000000D03*
X145600000Y-125000000D03*
%TO.N,/HPWR2*%
X145600000Y-142780000D03*
X147100000Y-142780000D03*
D24*
%TO.N,/G10\u00B7SPI_MOSI*%
X139605000Y-108490000D03*
D25*
%TO.N,/G1{slash}PA_SCL\u00B7RS232_RX{slash}RS485_RX*%
X142500000Y-130080000D03*
X141000000Y-130080000D03*
%TO.N,/G13{slash}I2S_DOUT\u00B7RS232_TX{slash}RS485_TX*%
X145600000Y-135160000D03*
X147100000Y-135160000D03*
%TO.N,/G11{slash}In_CL\u00B7*%
X141000000Y-127540000D03*
X142500000Y-127540000D03*
%TO.N,/G0{slash}I2S_LRCK\u00B7*%
X141000000Y-135160000D03*
X142500000Y-135160000D03*
%TO.N,/HPWR0*%
X147100000Y-137700000D03*
X145600000Y-137700000D03*
%TO.N,/G12{slash}In_SDA\u00B7*%
X145600000Y-127540000D03*
X147100000Y-127540000D03*
%TO.N,/HPWR1*%
X147100000Y-140240000D03*
X145600000Y-140240000D03*
%TO.N,+5V*%
X141000000Y-140240000D03*
X142500000Y-140240000D03*
%TO.N,/G17{slash}PC_TX\u00B7*%
X142500000Y-125000000D03*
X141000000Y-125000000D03*
%TO.N,/G9\u00B7CS*%
X142500000Y-117380000D03*
X141000000Y-117380000D03*
%TO.N,/BAT*%
X141000000Y-142780000D03*
X142500000Y-142780000D03*
D26*
%TO.N,/COM1*%
X117000000Y-128000000D03*
X119000000Y-128000000D03*
%TD*%
D27*
%TO.N,+5V*%
X126000000Y-109950000D02*
X126000000Y-110000000D01*
X126000000Y-110000000D02*
X135500000Y-119500000D01*
X135500000Y-119500000D02*
X135500000Y-139000000D01*
X135500000Y-139000000D02*
X136740000Y-140240000D01*
X136740000Y-140240000D02*
X141750000Y-140240000D01*
D28*
%TO.N,/G5\u00B7*%
X114000000Y-114901000D02*
X114000000Y-110175000D01*
%TO.N,/G8\u00B7SPI_MISO*%
X140208000Y-116078000D02*
X139605000Y-115475000D01*
X146336000Y-117380000D02*
X145034000Y-116078000D01*
X145034000Y-116078000D02*
X140208000Y-116078000D01*
X139605000Y-115475000D02*
X139610000Y-114200000D01*
X146350000Y-117380000D02*
X146336000Y-117380000D01*
%TO.N,/G6\u00B7SPI_CLK*%
X144685000Y-119920000D02*
X146350000Y-119920000D01*
X144050000Y-120555000D02*
X144685000Y-119920000D01*
D27*
%TO.N,GND*%
X125900000Y-107950000D02*
X126000000Y-108050000D01*
X128300000Y-105750000D02*
X126000000Y-108050000D01*
X146350000Y-107220000D02*
X146350000Y-107100000D01*
X120960000Y-107950000D02*
X125900000Y-107950000D01*
X121060000Y-108050000D02*
X120960000Y-107950000D01*
X145000000Y-105750000D02*
X128300000Y-105750000D01*
X120960000Y-107950000D02*
X120960000Y-106500000D01*
X146350000Y-107100000D02*
X145000000Y-105750000D01*
D28*
%TO.N,/G10\u00B7SPI_MOSI*%
X139605000Y-108490000D02*
X139605000Y-112905000D01*
X145080000Y-113570000D02*
X146350000Y-114840000D01*
X139605000Y-112905000D02*
X140270000Y-113570000D01*
X140270000Y-113570000D02*
X145080000Y-113570000D01*
D27*
%TO.N,+5V*%
X120800000Y-118940000D02*
X124780000Y-122920000D01*
X122150000Y-113800000D02*
X126000000Y-109950000D01*
X122150000Y-116650000D02*
X120800000Y-118000000D01*
X122150000Y-114000000D02*
X122150000Y-113800000D01*
X122150000Y-114000000D02*
X122150000Y-116650000D01*
X120800000Y-118000000D02*
X120800000Y-118940000D01*
D29*
%TO.N,/COM0*%
X110000000Y-142301530D02*
X110099235Y-142400765D01*
X110000000Y-141810000D02*
X110000000Y-142301530D01*
X124780000Y-128000000D02*
X123810000Y-128000000D01*
X123810000Y-128000000D02*
X110000000Y-141810000D01*
%TO.N,/SW0*%
X133500000Y-129297919D02*
X132202081Y-128000000D01*
X132202081Y-128000000D02*
X131000000Y-128000000D01*
X122500000Y-142500000D02*
X133500000Y-131500000D01*
X133500000Y-131500000D02*
X133500000Y-129297919D01*
X121000000Y-142500000D02*
X122500000Y-142500000D01*
%TO.N,/COM1*%
X115220000Y-128000000D02*
X117000000Y-128000000D01*
X117000000Y-128000000D02*
X119000000Y-128000000D01*
%TO.N,/NO0*%
X131000000Y-130540000D02*
X124780000Y-130540000D01*
%TO.N,/NC0*%
X131000000Y-125460000D02*
X124780000Y-125460000D01*
%TO.N,/NO1*%
X115220000Y-130540000D02*
X109000000Y-130540000D01*
%TO.N,/NC1*%
X115220000Y-125460000D02*
X109000000Y-125460000D01*
D28*
%TO.N,/BASE*%
X119040000Y-104215000D02*
X118825000Y-104000000D01*
X114000000Y-107825000D02*
X118915000Y-107825000D01*
X118915000Y-107825000D02*
X119040000Y-107950000D01*
X119040000Y-107950000D02*
X119040000Y-104215000D01*
%TO.N,/PULLDOWN*%
X120960000Y-104215000D02*
X121175000Y-104000000D01*
X120960000Y-105500000D02*
X120960000Y-104215000D01*
D27*
%TO.N,/COIL-*%
X117850000Y-116650000D02*
X119200000Y-118000000D01*
X119200000Y-118000000D02*
X119200000Y-118940000D01*
X117850000Y-114000000D02*
X117850000Y-116650000D01*
X119200000Y-118940000D02*
X115220000Y-122920000D01*
X120000000Y-111850000D02*
X117850000Y-114000000D01*
X120000000Y-110050000D02*
X120000000Y-111850000D01*
%TD*%
M02*
