%TF.GenerationSoftware,KiCad,Pcbnew,9.0.4-1.fc42*%
%TF.CreationDate,2025-09-12T10:21:52-07:00*%
%TF.ProjectId,adapter_relay,61646170-7465-4725-9f72-656c61792e6b,1.0*%
%TF.SameCoordinates,Original*%
%TF.FileFunction,Soldermask,Bot*%
%TF.FilePolarity,Negative*%
%FSLAX46Y46*%
G04 Gerber Fmt 4.6, Leading zero omitted, Abs format (unit mm)*
G04 Created by KiCad (PCBNEW 9.0.4-1.fc42) date 2025-09-12 10:21:52*
%MOMM*%
%LPD*%
G01*
G04 APERTURE LIST*
%ADD10C,2.000000*%
%ADD11C,3.100000*%
%ADD12C,1.100000*%
%ADD13C,1.000000*%
%ADD14R,2.350000X1.550000*%
%ADD15R,0.540000X0.940000*%
%ADD16R,1.400000X1.150000*%
%ADD17R,2.600000X1.700000*%
%ADD18R,0.650000X1.100000*%
%ADD19R,1.150000X1.400000*%
%ADD20R,2.940000X1.000000*%
%ADD21C,1.800000*%
%ADD22C,1.500000*%
%ADD23C,1.950000*%
%ADD24R,1.300000X0.700000*%
%ADD25R,1.700000X1.700000*%
%ADD26C,1.700000*%
G04 APERTURE END LIST*
D10*
%TO.C,REF\u002A\u002A*%
X107000000Y-103000000D03*
%TD*%
%TO.C,REF\u002A\u002A*%
X107000000Y-147000000D03*
%TD*%
D11*
%TO.C,REF\u002A\u002A*%
X103000000Y-147000000D03*
%TD*%
D10*
%TO.C,REF\u002A\u002A*%
X143000000Y-103000000D03*
%TD*%
%TO.C,REF\u002A\u002A*%
X143000000Y-147000000D03*
%TD*%
D12*
%TO.C,J1*%
X144050000Y-108490000D03*
D13*
X144050000Y-111030000D03*
X144050000Y-138970000D03*
D12*
X144050000Y-141510000D03*
%TD*%
D11*
%TO.C,REF\u002A\u002A*%
X147000000Y-147000000D03*
%TD*%
%TO.C,REF\u002A\u002A*%
X103000000Y-103000000D03*
%TD*%
%TO.C,REF\u002A\u002A*%
X147000000Y-103000000D03*
%TD*%
D14*
%TO.C,D1*%
X122150000Y-114000000D03*
X117850000Y-114000000D03*
%TD*%
D15*
%TO.C,C2*%
X119200000Y-118000000D03*
X120800000Y-118000000D03*
%TD*%
D16*
%TO.C,R1*%
X114000000Y-110175000D03*
X114000000Y-107825000D03*
%TD*%
D12*
%TO.C,J2*%
X144050000Y-141510000D03*
D13*
X144050000Y-138970000D03*
X144050000Y-111030000D03*
D12*
X144050000Y-108490000D03*
D17*
X146350000Y-107220000D03*
X146350000Y-109760000D03*
X146350000Y-112300000D03*
X146350000Y-114840000D03*
X146350000Y-117380000D03*
X146350000Y-119920000D03*
X146350000Y-122460000D03*
X146350000Y-125000000D03*
X146350000Y-127540000D03*
X146350000Y-130080000D03*
X146350000Y-132620000D03*
X146350000Y-135160000D03*
X146350000Y-137700000D03*
X146350000Y-140240000D03*
X146350000Y-142780000D03*
X141750000Y-107220000D03*
X141750000Y-109760000D03*
X141750000Y-112300000D03*
X141750000Y-114840000D03*
X141750000Y-117380000D03*
X141750000Y-119920000D03*
X141750000Y-122460000D03*
X141750000Y-125000000D03*
X141750000Y-127540000D03*
X141750000Y-130080000D03*
X141750000Y-132620000D03*
X141750000Y-135160000D03*
X141750000Y-137700000D03*
X141750000Y-140240000D03*
X141750000Y-142780000D03*
%TD*%
D18*
%TO.C,Q1*%
X119040000Y-107950000D03*
X120960000Y-107950000D03*
X120000000Y-110050000D03*
%TD*%
D19*
%TO.C,R2*%
X118825000Y-104000000D03*
X121175000Y-104000000D03*
%TD*%
D20*
%TO.C,K1*%
X124780000Y-122920000D03*
X124780000Y-125460000D03*
X124780000Y-128000000D03*
X124780000Y-130540000D03*
X124780000Y-133080000D03*
X115220000Y-133080000D03*
X115220000Y-130540000D03*
X115220000Y-128000000D03*
X115220000Y-125460000D03*
X115220000Y-122920000D03*
%TD*%
D21*
%TO.C,J3*%
X113500000Y-150000000D03*
D22*
X117300000Y-142900000D03*
D23*
X110000000Y-142500000D03*
D22*
X114000000Y-142900000D03*
%TD*%
D24*
%TO.C,C1*%
X126000000Y-109950000D03*
X126000000Y-108050000D03*
%TD*%
D25*
%TO.C,J6*%
X109000000Y-125460000D03*
D26*
X109000000Y-128000000D03*
X109000000Y-130540000D03*
%TD*%
D21*
%TO.C,J4*%
X124500000Y-150000000D03*
D22*
X128300000Y-142900000D03*
D23*
X121000000Y-142500000D03*
D22*
X125000000Y-142900000D03*
%TD*%
D25*
%TO.C,J5*%
X131000000Y-125460000D03*
D26*
X131000000Y-128000000D03*
X131000000Y-130540000D03*
%TD*%
M02*
