M48
; DRILL file {KiCad 9.0.4-1.fc42} date 2025-09-12T10:21:57-0700
; FORMAT={-:-/ absolute / metric / decimal}
; #@! TF.CreationDate,2025-09-12T10:21:57-07:00
; #@! TF.GenerationSoftware,Kicad,Pcbnew,9.0.4-1.fc42
; #@! TF.FileFunction,Plated,1,2,PTH
FMAT,2
METRIC
; #@! TA.AperFunction,Plated,PTH,ViaDrill
T1C0.300
; #@! TA.AperFunction,Plated,PTH,ViaDrill
T2C0.400
; #@! TA.AperFunction,Plated,PTH,ComponentDrill
T3C1.000
; #@! TA.AperFunction,Plated,PTH,ComponentDrill
T4C1.300
%
G90
G05
T1
X114.0Y-114.901
X139.605Y-108.49
X139.61Y-114.2
X144.05Y-120.555
T2
X117.0Y-128.0
X119.0Y-128.0
X141.0Y-112.3
X141.0Y-117.38
X141.0Y-119.92
X141.0Y-122.46
X141.0Y-125.0
X141.0Y-127.54
X141.0Y-130.08
X141.0Y-132.62
X141.0Y-135.16
X141.0Y-137.7
X141.0Y-140.24
X141.0Y-142.78
X142.5Y-112.3
X142.5Y-117.38
X142.5Y-119.92
X142.5Y-122.46
X142.5Y-125.0
X142.5Y-127.54
X142.5Y-130.08
X142.5Y-132.62
X142.5Y-135.16
X142.5Y-137.7
X142.5Y-140.24
X142.5Y-142.78
X145.6Y-107.22
X145.6Y-109.76
X145.6Y-112.3
X145.6Y-122.46
X145.6Y-125.0
X145.6Y-127.54
X145.6Y-130.08
X145.6Y-135.16
X145.6Y-137.7
X145.6Y-140.24
X145.6Y-142.78
X147.1Y-107.22
X147.1Y-109.76
X147.1Y-112.3
X147.1Y-122.46
X147.1Y-125.0
X147.1Y-127.54
X147.1Y-130.08
X147.1Y-135.16
X147.1Y-137.7
X147.1Y-140.24
X147.1Y-142.78
T3
X109.0Y-125.46
X109.0Y-128.0
X109.0Y-130.54
X114.0Y-142.9
X117.3Y-142.9
X125.0Y-142.9
X128.3Y-142.9
X131.0Y-125.46
X131.0Y-128.0
X131.0Y-130.54
T4
X110.0Y-142.5
X121.0Y-142.5
M30
