%TF.GenerationSoftware,KiCad,Pcbnew,9.0.4-1.fc42*%
%TF.CreationDate,2025-09-12T10:21:52-07:00*%
%TF.ProjectId,adapter_relay,61646170-7465-4725-9f72-656c61792e6b,1.0*%
%TF.SameCoordinates,Original*%
%TF.FileFunction,Copper,L1,Top*%
%TF.FilePolarity,Positive*%
%FSLAX46Y46*%
G04 Gerber Fmt 4.6, Leading zero omitted, Abs format (unit mm)*
G04 Created by KiCad (PCBNEW 9.0.4-1.fc42) date 2025-09-12 10:21:52*
%MOMM*%
%LPD*%
G01*
G04 APERTURE LIST*
%TA.AperFunction,SMDPad,CuDef*%
%ADD10R,2.600000X1.700000*%
%TD*%
%TA.AperFunction,ComponentPad*%
%ADD11C,1.500000*%
%TD*%
%TA.AperFunction,ComponentPad*%
%ADD12C,1.950000*%
%TD*%
%TA.AperFunction,ComponentPad*%
%ADD13R,1.700000X1.700000*%
%TD*%
%TA.AperFunction,ComponentPad*%
%ADD14C,1.700000*%
%TD*%
%TA.AperFunction,ViaPad*%
%ADD15C,0.600000*%
%TD*%
%TA.AperFunction,ViaPad*%
%ADD16C,0.700000*%
%TD*%
%TA.AperFunction,ViaPad*%
%ADD17C,1.000000*%
%TD*%
%TA.AperFunction,Conductor*%
%ADD18C,0.200000*%
%TD*%
%TA.AperFunction,Conductor*%
%ADD19C,1.500000*%
%TD*%
G04 APERTURE END LIST*
D10*
%TO.P,J1,000,GND*%
%TO.N,GND*%
X146350000Y-107220000D03*
%TO.P,J1,001,GND*%
%TO.N,/GND1*%
X146350000Y-109760000D03*
%TO.P,J1,002,GND*%
%TO.N,/GND2*%
X146350000Y-112300000D03*
%TO.P,J1,003,G37\u00B7SPI_MOSI*%
%TO.N,unconnected-(J1-G37\u00B7SPI_MOSI-Pad003)*%
X146350000Y-114840000D03*
%TO.P,J1,004,G35\u00B7SPI_MISO*%
%TO.N,unconnected-(J1-G35\u00B7SPI_MISO-Pad004)*%
X146350000Y-117380000D03*
%TO.P,J1,005,G36\u00B7SPI_CLK*%
%TO.N,unconnected-(J1-G36\u00B7SPI_CLK-Pad005)*%
X146350000Y-119920000D03*
%TO.P,J1,006,G44/RXD0\u00B7*%
%TO.N,/G44{slash}RXD0\u00B7*%
X146350000Y-122460000D03*
%TO.P,J1,007,G18/PC_RX\u00B7*%
%TO.N,/G18{slash}PC_RX\u00B7*%
X146350000Y-125000000D03*
%TO.P,J1,008,G12/In_SDA\u00B7*%
%TO.N,/G12{slash}In_SDA\u00B7*%
X146350000Y-127540000D03*
%TO.P,J1,009,G2/PA_SDA\u00B7*%
%TO.N,/G2{slash}PA_SDA\u00B7*%
X146350000Y-130080000D03*
%TO.P,J1,010,G6\u00B7*%
%TO.N,/G6\u00B7SPI_CLK*%
X146350000Y-132620000D03*
%TO.P,J1,011,G13/I2S_DOUT\u00B7RS232_TX/RS485_TX*%
%TO.N,/G13{slash}I2S_DOUT\u00B7RS232_TX{slash}RS485_TX*%
X146350000Y-135160000D03*
%TO.P,J1,012,HPWR*%
%TO.N,/HPWR0*%
X146350000Y-137700000D03*
%TO.P,J1,013,HPWR*%
%TO.N,/HPWR1*%
X146350000Y-140240000D03*
%TO.P,J1,014,HPWR*%
%TO.N,/HPWR2*%
X146350000Y-142780000D03*
%TO.P,J1,100,G10\u00B7*%
%TO.N,/G10\u00B7SPI_MOSI*%
X141750000Y-107220000D03*
%TO.P,J1,101,G8\u00B7*%
%TO.N,/G8\u00B7SPI_MISO*%
X141750000Y-109760000D03*
%TO.P,J1,102,RST/EN\u00B7*%
%TO.N,/RST{slash}EN\u00B7*%
X141750000Y-112300000D03*
%TO.P,J1,103,G5\u00B7*%
%TO.N,/G5\u00B7*%
X141750000Y-114840000D03*
%TO.P,J1,104,G9\u00B7CS*%
%TO.N,/G9\u00B7CS*%
X141750000Y-117380000D03*
%TO.P,J1,105,3V3*%
%TO.N,/3V3*%
X141750000Y-119920000D03*
%TO.P,J1,106,G43/TXD0\u00B7*%
%TO.N,/G43{slash}TXD0\u00B7*%
X141750000Y-122460000D03*
%TO.P,J1,107,G17/PC_TX\u00B7*%
%TO.N,/G17{slash}PC_TX\u00B7*%
X141750000Y-125000000D03*
%TO.P,J1,108,G11/In_SCL\u00B7*%
%TO.N,/G11{slash}In_CL\u00B7*%
X141750000Y-127540000D03*
%TO.P,J1,109,G1/PA_SCL\u00B7RS232_RX/RS485_RX*%
%TO.N,/G1{slash}PA_SCL\u00B7RS232_RX{slash}RS485_RX*%
X141750000Y-130080000D03*
%TO.P,J1,110,G7\u00B7RST*%
%TO.N,/G7\u00B7RST*%
X141750000Y-132620000D03*
%TO.P,J1,111,G0/I2S_LRCK\u00B7*%
%TO.N,/G0{slash}I2S_LRCK\u00B7*%
X141750000Y-135160000D03*
%TO.P,J1,112,G14/I2S_DIN\u00B7INT*%
%TO.N,/G14{slash}I2S_DIN\u00B7INT*%
X141750000Y-137700000D03*
%TO.P,J1,113,5V*%
%TO.N,+5V*%
X141750000Y-140240000D03*
%TO.P,J1,114,BAT*%
%TO.N,/BAT*%
X141750000Y-142780000D03*
%TD*%
D11*
%TO.P,J3,1,1*%
%TO.N,/SW1*%
X117300000Y-142900000D03*
D12*
%TO.P,J3,2,2*%
%TO.N,/COM0*%
X110000000Y-142500000D03*
D11*
%TO.P,J3,3,3*%
%TO.N,unconnected-(J3-Pad3)*%
X114000000Y-142900000D03*
%TD*%
D13*
%TO.P,J6,1,Pin_1*%
%TO.N,/NC1*%
X109000000Y-125460000D03*
D14*
%TO.P,J6,2,Pin_2*%
%TO.N,/SW1*%
X109000000Y-128000000D03*
%TO.P,J6,3,Pin_3*%
%TO.N,/NO1*%
X109000000Y-130540000D03*
%TD*%
D11*
%TO.P,J4,1,1*%
%TO.N,/COM1*%
X128300000Y-142900000D03*
D12*
%TO.P,J4,2,2*%
%TO.N,/SW0*%
X121000000Y-142500000D03*
D11*
%TO.P,J4,3,3*%
%TO.N,unconnected-(J4-Pad3)*%
X125000000Y-142900000D03*
%TD*%
D13*
%TO.P,J5,1,Pin_1*%
%TO.N,/NC0*%
X131000000Y-125460000D03*
D14*
%TO.P,J5,2,Pin_2*%
%TO.N,/SW0*%
X131000000Y-128000000D03*
%TO.P,J5,3,Pin_3*%
%TO.N,/NO0*%
X131000000Y-130540000D03*
%TD*%
D15*
%TO.N,/G5\u00B7*%
X114000000Y-114901000D03*
D16*
%TO.N,/G14{slash}I2S_DIN\u00B7INT*%
X141000000Y-137700000D03*
X142500000Y-137700000D03*
D15*
%TO.N,/G8\u00B7SPI_MISO*%
X139610000Y-114200000D03*
D16*
%TO.N,/RST{slash}EN\u00B7*%
X142500000Y-112300000D03*
X141000000Y-112300000D03*
%TO.N,/G2{slash}PA_SDA\u00B7*%
X147100000Y-130080000D03*
X145600000Y-130080000D03*
D15*
%TO.N,/G6\u00B7SPI_CLK*%
X144050000Y-120555000D03*
D16*
%TO.N,/G44{slash}RXD0\u00B7*%
X145600000Y-122460000D03*
X147100000Y-122460000D03*
%TO.N,/GND1*%
X147100000Y-109760000D03*
X145600000Y-109760000D03*
%TO.N,/3V3*%
X142500000Y-119920000D03*
X141000000Y-119920000D03*
%TO.N,/GND2*%
X145600000Y-112300000D03*
X147100000Y-112300000D03*
%TO.N,/G7\u00B7RST*%
X141000000Y-132620000D03*
X142500000Y-132620000D03*
%TO.N,/G43{slash}TXD0\u00B7*%
X142500000Y-122460000D03*
X141000000Y-122460000D03*
%TO.N,GND*%
X145600000Y-107220000D03*
X147100000Y-107220000D03*
%TO.N,/G18{slash}PC_RX\u00B7*%
X147100000Y-125000000D03*
X145600000Y-125000000D03*
%TO.N,/HPWR2*%
X145600000Y-142780000D03*
X147100000Y-142780000D03*
D15*
%TO.N,/G10\u00B7SPI_MOSI*%
X139605000Y-108490000D03*
D16*
%TO.N,/G1{slash}PA_SCL\u00B7RS232_RX{slash}RS485_RX*%
X142500000Y-130080000D03*
X141000000Y-130080000D03*
%TO.N,/G13{slash}I2S_DOUT\u00B7RS232_TX{slash}RS485_TX*%
X145600000Y-135160000D03*
X147100000Y-135160000D03*
%TO.N,/G11{slash}In_CL\u00B7*%
X141000000Y-127540000D03*
X142500000Y-127540000D03*
%TO.N,/G0{slash}I2S_LRCK\u00B7*%
X141000000Y-135160000D03*
X142500000Y-135160000D03*
%TO.N,/HPWR0*%
X147100000Y-137700000D03*
X145600000Y-137700000D03*
%TO.N,/G12{slash}In_SDA\u00B7*%
X145600000Y-127540000D03*
X147100000Y-127540000D03*
%TO.N,/HPWR1*%
X147100000Y-140240000D03*
X145600000Y-140240000D03*
%TO.N,+5V*%
X141000000Y-140240000D03*
X142500000Y-140240000D03*
%TO.N,/G17{slash}PC_TX\u00B7*%
X142500000Y-125000000D03*
X141000000Y-125000000D03*
%TO.N,/G9\u00B7CS*%
X142500000Y-117380000D03*
X141000000Y-117380000D03*
%TO.N,/BAT*%
X141000000Y-142780000D03*
X142500000Y-142780000D03*
D17*
%TO.N,/COM1*%
X117000000Y-128000000D03*
X119000000Y-128000000D03*
%TD*%
D18*
%TO.N,/G5\u00B7*%
X141750000Y-114840000D02*
X141689000Y-114901000D01*
X141689000Y-114901000D02*
X114000000Y-114901000D01*
%TO.N,/G8\u00B7SPI_MISO*%
X139610000Y-114200000D02*
X139605000Y-111030000D01*
X140875000Y-109760000D02*
X139605000Y-111030000D01*
X141750000Y-109760000D02*
X140875000Y-109760000D01*
%TO.N,/G6\u00B7SPI_CLK*%
X144685000Y-132620000D02*
X144050000Y-131985000D01*
X146350000Y-132620000D02*
X144685000Y-132620000D01*
X144050000Y-131985000D02*
X144050000Y-120555000D01*
%TO.N,/G10\u00B7SPI_MOSI*%
X141750000Y-107220000D02*
X140875000Y-107220000D01*
X140875000Y-107220000D02*
X139605000Y-108490000D01*
D19*
%TO.N,/SW1*%
X117300000Y-142900000D02*
X106500000Y-132100000D01*
X106500000Y-132100000D02*
X106500000Y-129297919D01*
X107797919Y-128000000D02*
X109000000Y-128000000D01*
X106500000Y-129297919D02*
X107797919Y-128000000D01*
%TO.N,/COM1*%
X119000000Y-128000000D02*
X128300000Y-137300000D01*
X128300000Y-142900000D02*
X128300000Y-137300000D01*
X117000000Y-128000000D02*
X119000000Y-128000000D01*
%TD*%
M02*
