%TF.GenerationSoftware,KiCad,Pcbnew,9.0.4-1.fc42*%
%TF.CreationDate,2025-09-12T10:21:52-07:00*%
%TF.ProjectId,adapter_relay,61646170-7465-4725-9f72-656c61792e6b,1.0*%
%TF.SameCoordinates,Original*%
%TF.FileFunction,Paste,Bot*%
%TF.FilePolarity,Positive*%
%FSLAX46Y46*%
G04 Gerber Fmt 4.6, Leading zero omitted, Abs format (unit mm)*
G04 Created by KiCad (PCBNEW 9.0.4-1.fc42) date 2025-09-12 10:21:52*
%MOMM*%
%LPD*%
G01*
G04 APERTURE LIST*
%ADD10R,2.350000X1.550000*%
%ADD11R,0.540000X0.940000*%
%ADD12R,1.400000X1.150000*%
%ADD13R,2.600000X1.700000*%
%ADD14R,0.650000X1.100000*%
%ADD15R,1.150000X1.400000*%
%ADD16R,2.940000X1.000000*%
%ADD17R,1.300000X0.700000*%
G04 APERTURE END LIST*
D10*
%TO.C,D1*%
X122150000Y-114000000D03*
X117850000Y-114000000D03*
%TD*%
D11*
%TO.C,C2*%
X119200000Y-118000000D03*
X120800000Y-118000000D03*
%TD*%
D12*
%TO.C,R1*%
X114000000Y-110175000D03*
X114000000Y-107825000D03*
%TD*%
D13*
%TO.C,J2*%
X146350000Y-107220000D03*
X146350000Y-109760000D03*
X146350000Y-112300000D03*
X146350000Y-114840000D03*
X146350000Y-117380000D03*
X146350000Y-119920000D03*
X146350000Y-122460000D03*
X146350000Y-125000000D03*
X146350000Y-127540000D03*
X146350000Y-130080000D03*
X146350000Y-132620000D03*
X146350000Y-135160000D03*
X146350000Y-137700000D03*
X146350000Y-140240000D03*
X146350000Y-142780000D03*
X141750000Y-107220000D03*
X141750000Y-109760000D03*
X141750000Y-112300000D03*
X141750000Y-114840000D03*
X141750000Y-117380000D03*
X141750000Y-119920000D03*
X141750000Y-122460000D03*
X141750000Y-125000000D03*
X141750000Y-127540000D03*
X141750000Y-130080000D03*
X141750000Y-132620000D03*
X141750000Y-135160000D03*
X141750000Y-137700000D03*
X141750000Y-140240000D03*
X141750000Y-142780000D03*
%TD*%
D14*
%TO.C,Q1*%
X119040000Y-107950000D03*
X120960000Y-107950000D03*
X120000000Y-110050000D03*
%TD*%
D15*
%TO.C,R2*%
X118825000Y-104000000D03*
X121175000Y-104000000D03*
%TD*%
D16*
%TO.C,K1*%
X124780000Y-122920000D03*
X124780000Y-125460000D03*
X124780000Y-128000000D03*
X124780000Y-130540000D03*
X124780000Y-133080000D03*
X115220000Y-133080000D03*
X115220000Y-130540000D03*
X115220000Y-128000000D03*
X115220000Y-125460000D03*
X115220000Y-122920000D03*
%TD*%
D17*
%TO.C,C1*%
X126000000Y-109950000D03*
X126000000Y-108050000D03*
%TD*%
M02*
